<svg width="32" height="32" viewBox="0 0 32 32" fill="none" xmlns="http://www.w3.org/2000/svg">
<circle cx="16" cy="16" r="16" fill="black"/>
<mask id="path-2-outside-1_60_17" maskUnits="userSpaceOnUse" x="5.9999" y="5" width="20.0396" height="24.033" fill="black">
<rect fill="white" x="5.9999" y="5" width="20.0396" height="24.033"/>
<path d="M7.66954 11.0027L7.67794 5.91179L9.39811 5.91463C9.79583 5.91529 10.1222 5.98377 10.3772 6.12008C10.6322 6.25474 10.8208 6.43982 10.943 6.67535C11.0653 6.91087 11.1261 7.17861 11.1256 7.47856C11.1251 7.77851 11.0634 8.04439 10.9404 8.2762C10.8174 8.508 10.629 8.68998 10.3752 8.82214C10.1214 8.95264 9.79734 9.01757 9.40293 9.01692L8.01089 9.01462L8.01181 8.4578L9.38396 8.46007C9.65574 8.46051 9.87456 8.4211 10.0404 8.34183C10.2079 8.26256 10.3291 8.15007 10.4039 8.00436C10.4804 7.857 10.5188 7.6814 10.5191 7.47756C10.5194 7.27373 10.4816 7.09552 10.4056 6.94293C10.3297 6.79034 10.2081 6.67248 10.0408 6.58934C9.87358 6.50455 9.65241 6.46193 9.37732 6.46147L8.29351 6.45968L8.28602 11.0037L7.66954 11.0027ZM10.0696 8.71972L11.3187 11.0087L10.6028 11.0075L9.37359 8.71857L10.0696 8.71972ZM12.0675 11.01L12.0738 7.19177L12.6605 7.19274L12.6542 11.0109L12.0675 11.01ZM12.3732 6.5559C12.2588 6.55571 12.1603 6.51661 12.0776 6.43858C11.9965 6.36056 11.956 6.26686 11.9562 6.15749C11.9564 6.04811 11.9972 5.95455 12.0785 5.87679C12.1615 5.79904 12.2601 5.76026 12.3745 5.76045C12.4888 5.76064 12.5865 5.79974 12.6676 5.87777C12.7503 5.95579 12.7916 6.04949 12.7914 6.15887C12.7913 6.26824 12.7497 6.3618 12.6667 6.43955C12.5854 6.51731 12.4875 6.55609 12.3732 6.5559ZM16.8571 7.19966L15.4389 11.0155L14.8423 11.0145L13.4367 7.19402L14.073 7.19507L15.122 10.2394L15.1618 10.2395L16.2207 7.19861L16.8571 7.19966ZM18.6324 11.1103C18.3904 11.1099 18.1709 11.0639 17.9738 10.9725C17.7768 10.8793 17.6204 10.7457 17.5047 10.5715C17.389 10.3956 17.3313 10.1834 17.3317 9.93483C17.3321 9.71608 17.3755 9.53883 17.4619 9.40308C17.5483 9.26567 17.6636 9.15815 17.8079 9.0805C17.9522 9.00285 18.1114 8.94511 18.2855 8.90728C18.4612 8.8678 18.6378 8.8366 18.8151 8.81369C19.0472 8.78425 19.2353 8.76218 19.3795 8.74751C19.5254 8.73117 19.6315 8.70401 19.6978 8.666C19.7658 8.628 19.7999 8.56176 19.8001 8.4673L19.8001 8.44742C19.8005 8.20215 19.7337 8.01147 19.5997 7.87535C19.4673 7.73925 19.2661 7.67097 18.996 7.67052C18.7159 7.67006 18.4962 7.73101 18.3369 7.85338C18.1777 7.97575 18.0656 8.10649 18.0007 8.24559L17.4442 8.0458C17.544 7.81396 17.6769 7.63355 17.8428 7.50456C18.0104 7.37392 18.1929 7.28307 18.3902 7.23202C18.5891 7.17932 18.7847 7.15313 18.977 7.15345C19.0996 7.15365 19.2404 7.16879 19.3995 7.19889C19.5602 7.22732 19.715 7.28641 19.864 7.37614C20.0147 7.46588 20.1396 7.60115 20.2387 7.78195C20.3378 7.96275 20.3872 8.20478 20.3867 8.50805L20.3825 11.0237L19.7959 11.0227L19.7967 10.5057L19.7669 10.5056C19.727 10.5884 19.6605 10.6769 19.5676 10.7713C19.4746 10.8656 19.351 10.9457 19.1968 11.0118C19.0426 11.0778 18.8544 11.1106 18.6324 11.1103ZM18.7227 10.5834C18.9547 10.5838 19.1503 10.5386 19.3096 10.4477C19.4705 10.3568 19.5917 10.2393 19.6731 10.0953C19.7562 9.95125 19.7979 9.79969 19.7981 9.6406L19.799 9.10367C19.7741 9.13346 19.7194 9.16071 19.6348 9.18543C19.5519 9.20849 19.4558 9.22905 19.3464 9.2471C19.2386 9.26349 19.1334 9.27823 19.0306 9.29132C18.9295 9.30275 18.8474 9.31256 18.7845 9.32074C18.632 9.34038 18.4894 9.37246 18.3567 9.41698C18.2258 9.45986 18.1196 9.52514 18.0382 9.61284C17.9585 9.69888 17.9186 9.81648 17.9183 9.96562C17.918 10.1695 17.9931 10.3237 18.1438 10.4284C18.2961 10.5314 18.4891 10.583 18.7227 10.5834ZM22.0437 8.72953L22.0399 11.0264L21.4533 11.0254L21.4596 7.20726L22.0263 7.20819L22.0253 7.80478L22.075 7.80486C22.1649 7.61112 22.301 7.45557 22.4835 7.33821C22.666 7.21919 22.9014 7.15992 23.1897 7.16039C23.4483 7.16082 23.6744 7.21422 23.8681 7.3206C24.0618 7.42533 24.2124 7.58467 24.3197 7.79862C24.4271 8.01092 24.4805 8.27948 24.48 8.60429L24.476 11.0304L23.8893 11.0295L23.8933 8.64309C23.8938 8.34314 23.8163 8.10935 23.6608 7.94171C23.5053 7.77242 23.2916 7.68755 23.0198 7.6871C22.8326 7.68679 22.6651 7.72712 22.5175 7.80808C22.3715 7.88904 22.2562 8.00734 22.1714 8.16298C22.0866 8.31861 22.0441 8.50746 22.0437 8.72953ZM10.4689 15.5073C10.4145 15.3399 10.3426 15.1898 10.2534 15.057C10.1658 14.9227 10.0607 14.8081 9.93824 14.7135C9.81742 14.6188 9.67999 14.5465 9.52595 14.4965C9.37191 14.4466 9.20292 14.4214 9.01897 14.4211C8.71736 14.4206 8.44297 14.4981 8.19579 14.6534C7.94861 14.8088 7.75185 15.038 7.60552 15.341C7.45919 15.644 7.38566 16.016 7.38493 16.4568C7.3842 16.8976 7.45733 17.2698 7.60432 17.5733C7.75131 17.8768 7.95063 18.1066 8.20226 18.2628C8.4539 18.419 8.73715 18.4974 9.05202 18.4979C9.34369 18.4984 9.60065 18.4366 9.82292 18.3127C10.0469 18.1871 10.2212 18.0101 10.3458 17.7816C10.4721 17.5515 10.5356 17.2806 10.5361 16.9691L10.7249 17.0092L9.19368 17.0066L9.19459 16.4598L11.1335 16.463L11.1326 17.0098C11.1319 17.4291 11.0418 17.7935 10.8623 18.1031C10.6845 18.4127 10.4388 18.6526 10.1253 18.8228C9.81352 18.9913 9.45542 19.0753 9.05107 19.0746C8.60031 19.0738 8.20442 18.9671 7.86339 18.7544C7.52401 18.5418 7.25936 18.2397 7.06942 17.8483C6.88115 17.4569 6.78745 16.9927 6.78834 16.4558C6.789 16.0531 6.84346 15.6911 6.95171 15.3698C7.06162 15.0468 7.21619 14.772 7.41543 14.5452C7.61467 14.3185 7.85027 14.1449 8.12225 14.0244C8.39423 13.9039 8.69346 13.8439 9.01992 13.8444C9.28839 13.8449 9.53856 13.8859 9.77043 13.9675C10.004 14.0474 10.2118 14.1612 10.3938 14.309C10.5775 14.4552 10.7305 14.6303 10.8528 14.8343C10.9751 15.0367 11.0593 15.2614 11.1053 15.5084L10.4689 15.5073ZM13.229 19.1014C12.9871 19.101 12.7676 19.055 12.5705 18.9636C12.3735 18.8704 12.2171 18.7368 12.1014 18.5626C11.9857 18.3867 11.928 18.1745 11.9284 17.9259C11.9288 17.7072 11.9722 17.5299 12.0586 17.3942C12.145 17.2568 12.2603 17.1492 12.4046 17.0716C12.5489 16.9939 12.7081 16.9362 12.8822 16.8984C13.0579 16.8589 13.2344 16.8277 13.4118 16.8048C13.6439 16.7753 13.832 16.7533 13.9762 16.7386C14.122 16.7223 14.2281 16.6951 14.2945 16.6571C14.3625 16.6191 14.3966 16.5529 14.3967 16.4584L14.3968 16.4385C14.3972 16.1933 14.3304 16.0026 14.1964 15.8665C14.064 15.7303 13.8628 15.6621 13.5927 15.6616C13.3126 15.6612 13.0929 15.7221 12.9336 15.8445C12.7743 15.9669 12.6623 16.0976 12.5974 16.2367L12.0409 16.0369C12.1407 15.8051 12.2736 15.6246 12.4395 15.4957C12.6071 15.365 12.7896 15.2742 12.9868 15.2231C13.1858 15.1704 13.3814 15.1442 13.5736 15.1445C13.6963 15.1447 13.8371 15.1599 13.9961 15.19C14.1568 15.2184 14.3117 15.2775 14.4607 15.3672C14.6113 15.457 14.7362 15.5922 14.8354 15.773C14.9345 15.9538 14.9838 16.1959 14.9833 16.4991L14.9792 19.0148L14.3925 19.0138L14.3934 18.4968L14.3636 18.4967C14.3236 18.5795 14.2572 18.668 14.1643 18.7624C14.0713 18.8567 13.9477 18.9368 13.7935 19.0029C13.6392 19.0689 13.4511 19.1017 13.229 19.1014ZM13.3194 18.5745C13.5514 18.5749 13.747 18.5297 13.9063 18.4388C14.0672 18.3479 14.1883 18.2304 14.2698 18.0864C14.3529 17.9424 14.3945 17.7908 14.3948 17.6317L14.3957 17.0948C14.3708 17.1246 14.3161 17.1518 14.2315 17.1765C14.1486 17.1996 14.0524 17.2201 13.943 17.2382C13.8353 17.2546 13.73 17.2693 13.6273 17.2824C13.5262 17.2939 13.4441 17.3037 13.3811 17.3118C13.2286 17.3315 13.0861 17.3636 12.9534 17.4081C12.8224 17.451 12.7163 17.5162 12.6349 17.6039C12.5552 17.69 12.5153 17.8076 12.515 17.9567C12.5147 18.1606 12.5898 18.3148 12.7405 18.4195C12.8927 18.5224 13.0857 18.5741 13.3194 18.5745ZM16.0499 19.0165L16.0562 15.1984L16.623 15.1993L16.622 15.7959L16.6717 15.796C16.7516 15.5923 16.8803 15.4342 17.0578 15.3218C17.2353 15.2078 17.4484 15.1509 17.6969 15.1513C17.9488 15.1518 18.1584 15.2093 18.3256 15.3239C18.4944 15.4369 18.6259 15.5953 18.72 15.7993L18.7598 15.7994C18.8579 15.6024 19.0048 15.446 19.2005 15.3303C19.3963 15.213 19.6309 15.1545 19.9043 15.155C20.2457 15.1555 20.5248 15.2629 20.7415 15.477C20.9582 15.6895 21.0662 16.0203 21.0655 16.4694L21.0613 19.0248L20.4746 19.0238L20.4789 16.4684C20.4793 16.1867 20.4026 15.9852 20.2487 15.864C20.0948 15.7428 19.9134 15.682 19.7046 15.6816C19.4361 15.6812 19.228 15.7621 19.0802 15.9242C18.9325 16.0847 18.8584 16.2884 18.858 16.5354L18.8539 19.0212L18.2573 19.0202L18.2616 16.4051C18.262 16.188 18.1918 16.0131 18.0512 15.8803C17.9106 15.7458 17.7292 15.6784 17.5071 15.678C17.3547 15.6778 17.2121 15.7181 17.0794 15.7991C16.9483 15.8801 16.8421 15.9926 16.7606 16.1367C16.6809 16.279 16.6408 16.4439 16.6405 16.6311L16.6366 19.0175L16.0499 19.0165ZM23.7346 19.1088C23.3667 19.1081 23.0495 19.0264 22.783 18.8636C22.5181 18.6991 22.3138 18.47 22.1701 18.1765C22.0281 17.8813 21.9574 17.5381 21.958 17.147C21.9587 16.7559 22.0305 16.4113 22.1735 16.1133C22.3182 15.8136 22.5191 15.5802 22.7762 15.4133C23.035 15.2447 23.3368 15.1606 23.6815 15.1612C23.8803 15.1615 24.0767 15.195 24.2704 15.2616C24.4642 15.3282 24.6405 15.4362 24.7994 15.5856C24.9582 15.7334 25.0847 15.9292 25.1787 16.1729C25.2728 16.4167 25.3195 16.7167 25.319 17.073L25.3185 17.3216L22.3754 17.3167L22.3762 16.8096L24.7228 16.8135C24.7231 16.5981 24.6804 16.4058 24.5945 16.2366C24.5102 16.0674 24.3895 15.9338 24.2322 15.8358C24.0766 15.7377 23.8927 15.6886 23.6806 15.6882C23.4469 15.6878 23.2447 15.7455 23.0738 15.8612C22.9046 15.9753 22.7742 16.1242 22.6828 16.308C22.5913 16.4918 22.5454 16.6889 22.5451 16.8994L22.5445 17.2375C22.5441 17.5258 22.5934 17.7703 22.6925 17.971C22.7932 18.1701 22.933 18.3219 23.1118 18.4266C23.2906 18.5297 23.4985 18.5814 23.7355 18.5818C23.8896 18.582 24.0289 18.5607 24.1532 18.5178C24.2792 18.4733 24.3879 18.4072 24.4792 18.3195C24.5705 18.2302 24.6411 18.1192 24.691 17.9867L25.2575 18.1468C25.1975 18.3389 25.097 18.5078 24.9559 18.6534C24.8148 18.7973 24.6406 18.9097 24.4333 18.9906C24.2261 19.0698 23.9931 19.1092 23.7346 19.1088ZM10.8915 23.1898C10.8621 22.9379 10.7415 22.7422 10.5296 22.6026C10.3177 22.463 10.0576 22.393 9.74939 22.3925C9.52401 22.3921 9.32674 22.4283 9.15759 22.5009C8.99009 22.5735 8.85901 22.6736 8.76434 22.801C8.67132 22.9285 8.62468 23.0734 8.62442 23.2358C8.62419 23.3717 8.65631 23.4886 8.72078 23.5865C8.78691 23.6827 8.8713 23.7632 8.97394 23.828C9.07658 23.8912 9.18421 23.9435 9.29683 23.9852C9.40945 24.0251 9.51298 24.0576 9.60739 24.0826L10.1242 24.2227C10.2567 24.2577 10.4041 24.306 10.5664 24.3676C10.7304 24.4292 10.8869 24.5131 11.0358 24.6194C11.1865 24.7241 11.3105 24.8585 11.408 25.0227C11.5056 25.187 11.5541 25.3884 11.5537 25.627C11.5533 25.9021 11.4808 26.1506 11.3362 26.3724C11.1933 26.5942 10.9842 26.7704 10.7089 26.9008C10.4353 27.0313 10.1029 27.0962 9.7118 27.0956C9.34722 27.095 9.03162 27.0356 8.765 26.9175C8.50005 26.7994 8.29151 26.635 8.1394 26.4243C7.98894 26.2136 7.904 25.969 7.88457 25.6906L8.52093 25.6916C8.53719 25.8839 8.60156 26.0431 8.71404 26.1692C8.82818 26.2937 8.9722 26.3867 9.14611 26.4483C9.32167 26.5083 9.51054 26.5384 9.71272 26.5388C9.94804 26.5391 10.1594 26.5014 10.3468 26.4255C10.5342 26.3479 10.6827 26.2404 10.7923 26.103C10.9019 25.964 10.9568 25.8017 10.9571 25.6161C10.9574 25.4471 10.9104 25.3094 10.8161 25.2032C10.7218 25.097 10.5977 25.0106 10.4437 24.9441C10.2897 24.8775 10.1232 24.8193 9.94433 24.7693L9.31821 24.5892C8.92067 24.4742 8.60607 24.3105 8.37441 24.098C8.14276 23.8855 8.02721 23.6077 8.02778 23.2647C8.02825 22.9796 8.10572 22.7312 8.26018 22.5193C8.41631 22.3058 8.62539 22.1404 8.88742 22.0232C9.15112 21.9043 9.44537 21.8451 9.77018 21.8457C10.0983 21.8462 10.3899 21.9055 10.6449 22.0236C10.8999 22.14 11.1018 22.2994 11.2506 22.5019C11.4011 22.7043 11.4803 22.934 11.4881 23.1908L10.8915 23.1898ZM13.0759 24.7148L13.0721 27.0116L12.4855 27.0107L12.4939 21.9198L13.0805 21.9207L13.0774 23.79L13.1271 23.7901C13.217 23.5931 13.3515 23.4367 13.5306 23.321C13.7114 23.2036 13.9518 23.1452 14.2518 23.1457C14.512 23.1461 14.7397 23.1987 14.9351 23.3034C15.1305 23.4065 15.2819 23.565 15.3892 23.7789C15.4983 23.9912 15.5525 24.2615 15.552 24.5896L15.548 27.0157L14.9613 27.0147L14.9653 24.6284C14.9658 24.3251 14.8874 24.0905 14.7303 23.9245C14.5748 23.7569 14.3586 23.6728 14.0819 23.6724C13.8897 23.6721 13.7172 23.7124 13.5646 23.7933C13.4137 23.8743 13.2942 23.9926 13.2061 24.1482C13.1197 24.3038 13.0763 24.4927 13.0759 24.7148ZM18.1722 27.0996C17.8275 27.099 17.5252 27.0165 17.2653 26.852C17.007 26.6875 16.8053 26.4577 16.6599 26.1624C16.5162 25.8672 16.4447 25.5224 16.4453 25.128C16.446 24.7303 16.5187 24.3832 16.6633 24.0868C16.8097 23.7904 17.0122 23.5604 17.271 23.3967C17.5315 23.2331 17.834 23.1516 18.1787 23.1522C18.5234 23.1527 18.8249 23.2352 19.0831 23.3997C19.3431 23.5642 19.5449 23.7949 19.6885 24.0918C19.8339 24.3887 19.9062 24.736 19.9056 25.1337C19.9049 25.5281 19.8314 25.8727 19.6851 26.1674C19.5405 26.4622 19.3379 26.6914 19.0774 26.855C18.8187 27.0186 18.5169 27.1002 18.1722 27.0996ZM18.1731 26.5726C18.4349 26.573 18.6505 26.5063 18.8197 26.3723C18.989 26.2384 19.1144 26.0621 19.1959 25.8435C19.2775 25.6248 19.3185 25.3879 19.3189 25.1327C19.3193 24.8775 19.2791 24.6396 19.1983 24.4191C19.1175 24.1986 18.9926 24.0202 18.8238 23.884C18.655 23.7479 18.4397 23.6796 18.1779 23.6791C17.916 23.6787 17.7005 23.7463 17.5312 23.8819C17.362 24.0175 17.2365 24.1955 17.155 24.4157C17.0734 24.636 17.0324 24.8737 17.032 25.129C17.0316 25.3842 17.0718 25.6212 17.1526 25.8401C17.2335 26.059 17.3583 26.2357 17.5271 26.3702C17.6959 26.5047 17.9112 26.5722 18.1731 26.5726ZM20.7956 28.4562L20.8043 23.2062L21.371 23.2071L21.37 23.8137L21.4396 23.8138C21.4828 23.7476 21.5426 23.6631 21.619 23.5605C21.6971 23.4562 21.8083 23.3636 21.9526 23.2827C22.0985 23.2 22.2958 23.1589 22.5444 23.1594C22.8659 23.1599 23.1491 23.2407 23.3941 23.4019C23.6391 23.563 23.8302 23.7912 23.9672 24.0864C24.1043 24.3816 24.1725 24.7297 24.1718 25.1308C24.1712 25.5351 24.1018 25.8855 23.9638 26.1819C23.8257 26.4767 23.6348 26.7051 23.3909 26.8671C23.147 27.0274 22.866 27.1073 22.5478 27.1068C22.3026 27.1064 22.1062 27.0655 21.9589 26.984C21.8115 26.9009 21.6982 26.8071 21.6188 26.7026C21.5394 26.5964 21.4783 26.5084 21.4353 26.4388L21.3856 26.4387L21.3822 28.4572L20.7956 28.4562ZM21.3778 25.1162C21.3773 25.4046 21.4192 25.659 21.5033 25.8796C21.5875 26.0985 21.7107 26.2702 21.8729 26.3948C22.0351 26.5177 22.2338 26.5793 22.4691 26.5797C22.7144 26.5801 22.9192 26.5158 23.0835 26.3868C23.2494 26.2562 23.374 26.0807 23.4572 25.8604C23.5421 25.6385 23.5847 25.3917 23.5852 25.1199C23.5856 24.8514 23.5446 24.6094 23.4621 24.3938C23.3813 24.1766 23.2581 24.0049 23.0926 23.8787C22.9287 23.7508 22.7225 23.6866 22.4739 23.6862C22.2353 23.6858 22.0347 23.746 21.8721 23.8667C21.7095 23.9857 21.5866 24.1529 21.5033 24.3682C21.4201 24.5819 21.3783 24.8312 21.3778 25.1162Z"/>
</mask>
<path d="M7.66954 11.0027L7.67794 5.91179L9.39811 5.91463C9.79583 5.91529 10.1222 5.98377 10.3772 6.12008C10.6322 6.25474 10.8208 6.43982 10.943 6.67535C11.0653 6.91087 11.1261 7.17861 11.1256 7.47856C11.1251 7.77851 11.0634 8.04439 10.9404 8.2762C10.8174 8.508 10.629 8.68998 10.3752 8.82214C10.1214 8.95264 9.79734 9.01757 9.40293 9.01692L8.01089 9.01462L8.01181 8.4578L9.38396 8.46007C9.65574 8.46051 9.87456 8.4211 10.0404 8.34183C10.2079 8.26256 10.3291 8.15007 10.4039 8.00436C10.4804 7.857 10.5188 7.6814 10.5191 7.47756C10.5194 7.27373 10.4816 7.09552 10.4056 6.94293C10.3297 6.79034 10.2081 6.67248 10.0408 6.58934C9.87358 6.50455 9.65241 6.46193 9.37732 6.46147L8.29351 6.45968L8.28602 11.0037L7.66954 11.0027ZM10.0696 8.71972L11.3187 11.0087L10.6028 11.0075L9.37359 8.71857L10.0696 8.71972ZM12.0675 11.01L12.0738 7.19177L12.6605 7.19274L12.6542 11.0109L12.0675 11.01ZM12.3732 6.5559C12.2588 6.55571 12.1603 6.51661 12.0776 6.43858C11.9965 6.36056 11.956 6.26686 11.9562 6.15749C11.9564 6.04811 11.9972 5.95455 12.0785 5.87679C12.1615 5.79904 12.2601 5.76026 12.3745 5.76045C12.4888 5.76064 12.5865 5.79974 12.6676 5.87777C12.7503 5.95579 12.7916 6.04949 12.7914 6.15887C12.7913 6.26824 12.7497 6.3618 12.6667 6.43955C12.5854 6.51731 12.4875 6.55609 12.3732 6.5559ZM16.8571 7.19966L15.4389 11.0155L14.8423 11.0145L13.4367 7.19402L14.073 7.19507L15.122 10.2394L15.1618 10.2395L16.2207 7.19861L16.8571 7.19966ZM18.6324 11.1103C18.3904 11.1099 18.1709 11.0639 17.9738 10.9725C17.7768 10.8793 17.6204 10.7457 17.5047 10.5715C17.389 10.3956 17.3313 10.1834 17.3317 9.93483C17.3321 9.71608 17.3755 9.53883 17.4619 9.40308C17.5483 9.26567 17.6636 9.15815 17.8079 9.0805C17.9522 9.00285 18.1114 8.94511 18.2855 8.90728C18.4612 8.8678 18.6378 8.8366 18.8151 8.81369C19.0472 8.78425 19.2353 8.76218 19.3795 8.74751C19.5254 8.73117 19.6315 8.70401 19.6978 8.666C19.7658 8.628 19.7999 8.56176 19.8001 8.4673L19.8001 8.44742C19.8005 8.20215 19.7337 8.01147 19.5997 7.87535C19.4673 7.73925 19.2661 7.67097 18.996 7.67052C18.7159 7.67006 18.4962 7.73101 18.3369 7.85338C18.1777 7.97575 18.0656 8.10649 18.0007 8.24559L17.4442 8.0458C17.544 7.81396 17.6769 7.63355 17.8428 7.50456C18.0104 7.37392 18.1929 7.28307 18.3902 7.23202C18.5891 7.17932 18.7847 7.15313 18.977 7.15345C19.0996 7.15365 19.2404 7.16879 19.3995 7.19889C19.5602 7.22732 19.715 7.28641 19.864 7.37614C20.0147 7.46588 20.1396 7.60115 20.2387 7.78195C20.3378 7.96275 20.3872 8.20478 20.3867 8.50805L20.3825 11.0237L19.7959 11.0227L19.7967 10.5057L19.7669 10.5056C19.727 10.5884 19.6605 10.6769 19.5676 10.7713C19.4746 10.8656 19.351 10.9457 19.1968 11.0118C19.0426 11.0778 18.8544 11.1106 18.6324 11.1103ZM18.7227 10.5834C18.9547 10.5838 19.1503 10.5386 19.3096 10.4477C19.4705 10.3568 19.5917 10.2393 19.6731 10.0953C19.7562 9.95125 19.7979 9.79969 19.7981 9.6406L19.799 9.10367C19.7741 9.13346 19.7194 9.16071 19.6348 9.18543C19.5519 9.20849 19.4558 9.22905 19.3464 9.2471C19.2386 9.26349 19.1334 9.27823 19.0306 9.29132C18.9295 9.30275 18.8474 9.31256 18.7845 9.32074C18.632 9.34038 18.4894 9.37246 18.3567 9.41698C18.2258 9.45986 18.1196 9.52514 18.0382 9.61284C17.9585 9.69888 17.9186 9.81648 17.9183 9.96562C17.918 10.1695 17.9931 10.3237 18.1438 10.4284C18.2961 10.5314 18.4891 10.583 18.7227 10.5834ZM22.0437 8.72953L22.0399 11.0264L21.4533 11.0254L21.4596 7.20726L22.0263 7.20819L22.0253 7.80478L22.075 7.80486C22.1649 7.61112 22.301 7.45557 22.4835 7.33821C22.666 7.21919 22.9014 7.15992 23.1897 7.16039C23.4483 7.16082 23.6744 7.21422 23.8681 7.3206C24.0618 7.42533 24.2124 7.58467 24.3197 7.79862C24.4271 8.01092 24.4805 8.27948 24.48 8.60429L24.476 11.0304L23.8893 11.0295L23.8933 8.64309C23.8938 8.34314 23.8163 8.10935 23.6608 7.94171C23.5053 7.77242 23.2916 7.68755 23.0198 7.6871C22.8326 7.68679 22.6651 7.72712 22.5175 7.80808C22.3715 7.88904 22.2562 8.00734 22.1714 8.16298C22.0866 8.31861 22.0441 8.50746 22.0437 8.72953ZM10.4689 15.5073C10.4145 15.3399 10.3426 15.1898 10.2534 15.057C10.1658 14.9227 10.0607 14.8081 9.93824 14.7135C9.81742 14.6188 9.67999 14.5465 9.52595 14.4965C9.37191 14.4466 9.20292 14.4214 9.01897 14.4211C8.71736 14.4206 8.44297 14.4981 8.19579 14.6534C7.94861 14.8088 7.75185 15.038 7.60552 15.341C7.45919 15.644 7.38566 16.016 7.38493 16.4568C7.3842 16.8976 7.45733 17.2698 7.60432 17.5733C7.75131 17.8768 7.95063 18.1066 8.20226 18.2628C8.4539 18.419 8.73715 18.4974 9.05202 18.4979C9.34369 18.4984 9.60065 18.4366 9.82292 18.3127C10.0469 18.1871 10.2212 18.0101 10.3458 17.7816C10.4721 17.5515 10.5356 17.2806 10.5361 16.9691L10.7249 17.0092L9.19368 17.0066L9.19459 16.4598L11.1335 16.463L11.1326 17.0098C11.1319 17.4291 11.0418 17.7935 10.8623 18.1031C10.6845 18.4127 10.4388 18.6526 10.1253 18.8228C9.81352 18.9913 9.45542 19.0753 9.05107 19.0746C8.60031 19.0738 8.20442 18.9671 7.86339 18.7544C7.52401 18.5418 7.25936 18.2397 7.06942 17.8483C6.88115 17.4569 6.78745 16.9927 6.78834 16.4558C6.789 16.0531 6.84346 15.6911 6.95171 15.3698C7.06162 15.0468 7.21619 14.772 7.41543 14.5452C7.61467 14.3185 7.85027 14.1449 8.12225 14.0244C8.39423 13.9039 8.69346 13.8439 9.01992 13.8444C9.28839 13.8449 9.53856 13.8859 9.77043 13.9675C10.004 14.0474 10.2118 14.1612 10.3938 14.309C10.5775 14.4552 10.7305 14.6303 10.8528 14.8343C10.9751 15.0367 11.0593 15.2614 11.1053 15.5084L10.4689 15.5073ZM13.229 19.1014C12.9871 19.101 12.7676 19.055 12.5705 18.9636C12.3735 18.8704 12.2171 18.7368 12.1014 18.5626C11.9857 18.3867 11.928 18.1745 11.9284 17.9259C11.9288 17.7072 11.9722 17.5299 12.0586 17.3942C12.145 17.2568 12.2603 17.1492 12.4046 17.0716C12.5489 16.9939 12.7081 16.9362 12.8822 16.8984C13.0579 16.8589 13.2344 16.8277 13.4118 16.8048C13.6439 16.7753 13.832 16.7533 13.9762 16.7386C14.122 16.7223 14.2281 16.6951 14.2945 16.6571C14.3625 16.6191 14.3966 16.5529 14.3967 16.4584L14.3968 16.4385C14.3972 16.1933 14.3304 16.0026 14.1964 15.8665C14.064 15.7303 13.8628 15.6621 13.5927 15.6616C13.3126 15.6612 13.0929 15.7221 12.9336 15.8445C12.7743 15.9669 12.6623 16.0976 12.5974 16.2367L12.0409 16.0369C12.1407 15.8051 12.2736 15.6246 12.4395 15.4957C12.6071 15.365 12.7896 15.2742 12.9868 15.2231C13.1858 15.1704 13.3814 15.1442 13.5736 15.1445C13.6963 15.1447 13.8371 15.1599 13.9961 15.19C14.1568 15.2184 14.3117 15.2775 14.4607 15.3672C14.6113 15.457 14.7362 15.5922 14.8354 15.773C14.9345 15.9538 14.9838 16.1959 14.9833 16.4991L14.9792 19.0148L14.3925 19.0138L14.3934 18.4968L14.3636 18.4967C14.3236 18.5795 14.2572 18.668 14.1643 18.7624C14.0713 18.8567 13.9477 18.9368 13.7935 19.0029C13.6392 19.0689 13.4511 19.1017 13.229 19.1014ZM13.3194 18.5745C13.5514 18.5749 13.747 18.5297 13.9063 18.4388C14.0672 18.3479 14.1883 18.2304 14.2698 18.0864C14.3529 17.9424 14.3945 17.7908 14.3948 17.6317L14.3957 17.0948C14.3708 17.1246 14.3161 17.1518 14.2315 17.1765C14.1486 17.1996 14.0524 17.2201 13.943 17.2382C13.8353 17.2546 13.73 17.2693 13.6273 17.2824C13.5262 17.2939 13.4441 17.3037 13.3811 17.3118C13.2286 17.3315 13.0861 17.3636 12.9534 17.4081C12.8224 17.451 12.7163 17.5162 12.6349 17.6039C12.5552 17.69 12.5153 17.8076 12.515 17.9567C12.5147 18.1606 12.5898 18.3148 12.7405 18.4195C12.8927 18.5224 13.0857 18.5741 13.3194 18.5745ZM16.0499 19.0165L16.0562 15.1984L16.623 15.1993L16.622 15.7959L16.6717 15.796C16.7516 15.5923 16.8803 15.4342 17.0578 15.3218C17.2353 15.2078 17.4484 15.1509 17.6969 15.1513C17.9488 15.1518 18.1584 15.2093 18.3256 15.3239C18.4944 15.4369 18.6259 15.5953 18.72 15.7993L18.7598 15.7994C18.8579 15.6024 19.0048 15.446 19.2005 15.3303C19.3963 15.213 19.6309 15.1545 19.9043 15.155C20.2457 15.1555 20.5248 15.2629 20.7415 15.477C20.9582 15.6895 21.0662 16.0203 21.0655 16.4694L21.0613 19.0248L20.4746 19.0238L20.4789 16.4684C20.4793 16.1867 20.4026 15.9852 20.2487 15.864C20.0948 15.7428 19.9134 15.682 19.7046 15.6816C19.4361 15.6812 19.228 15.7621 19.0802 15.9242C18.9325 16.0847 18.8584 16.2884 18.858 16.5354L18.8539 19.0212L18.2573 19.0202L18.2616 16.4051C18.262 16.188 18.1918 16.0131 18.0512 15.8803C17.9106 15.7458 17.7292 15.6784 17.5071 15.678C17.3547 15.6778 17.2121 15.7181 17.0794 15.7991C16.9483 15.8801 16.8421 15.9926 16.7606 16.1367C16.6809 16.279 16.6408 16.4439 16.6405 16.6311L16.6366 19.0175L16.0499 19.0165ZM23.7346 19.1088C23.3667 19.1081 23.0495 19.0264 22.783 18.8636C22.5181 18.6991 22.3138 18.47 22.1701 18.1765C22.0281 17.8813 21.9574 17.5381 21.958 17.147C21.9587 16.7559 22.0305 16.4113 22.1735 16.1133C22.3182 15.8136 22.5191 15.5802 22.7762 15.4133C23.035 15.2447 23.3368 15.1606 23.6815 15.1612C23.8803 15.1615 24.0767 15.195 24.2704 15.2616C24.4642 15.3282 24.6405 15.4362 24.7994 15.5856C24.9582 15.7334 25.0847 15.9292 25.1787 16.1729C25.2728 16.4167 25.3195 16.7167 25.319 17.073L25.3185 17.3216L22.3754 17.3167L22.3762 16.8096L24.7228 16.8135C24.7231 16.5981 24.6804 16.4058 24.5945 16.2366C24.5102 16.0674 24.3895 15.9338 24.2322 15.8358C24.0766 15.7377 23.8927 15.6886 23.6806 15.6882C23.4469 15.6878 23.2447 15.7455 23.0738 15.8612C22.9046 15.9753 22.7742 16.1242 22.6828 16.308C22.5913 16.4918 22.5454 16.6889 22.5451 16.8994L22.5445 17.2375C22.5441 17.5258 22.5934 17.7703 22.6925 17.971C22.7932 18.1701 22.933 18.3219 23.1118 18.4266C23.2906 18.5297 23.4985 18.5814 23.7355 18.5818C23.8896 18.582 24.0289 18.5607 24.1532 18.5178C24.2792 18.4733 24.3879 18.4072 24.4792 18.3195C24.5705 18.2302 24.6411 18.1192 24.691 17.9867L25.2575 18.1468C25.1975 18.3389 25.097 18.5078 24.9559 18.6534C24.8148 18.7973 24.6406 18.9097 24.4333 18.9906C24.2261 19.0698 23.9931 19.1092 23.7346 19.1088ZM10.8915 23.1898C10.8621 22.9379 10.7415 22.7422 10.5296 22.6026C10.3177 22.463 10.0576 22.393 9.74939 22.3925C9.52401 22.3921 9.32674 22.4283 9.15759 22.5009C8.99009 22.5735 8.85901 22.6736 8.76434 22.801C8.67132 22.9285 8.62468 23.0734 8.62442 23.2358C8.62419 23.3717 8.65631 23.4886 8.72078 23.5865C8.78691 23.6827 8.8713 23.7632 8.97394 23.828C9.07658 23.8912 9.18421 23.9435 9.29683 23.9852C9.40945 24.0251 9.51298 24.0576 9.60739 24.0826L10.1242 24.2227C10.2567 24.2577 10.4041 24.306 10.5664 24.3676C10.7304 24.4292 10.8869 24.5131 11.0358 24.6194C11.1865 24.7241 11.3105 24.8585 11.408 25.0227C11.5056 25.187 11.5541 25.3884 11.5537 25.627C11.5533 25.9021 11.4808 26.1506 11.3362 26.3724C11.1933 26.5942 10.9842 26.7704 10.7089 26.9008C10.4353 27.0313 10.1029 27.0962 9.7118 27.0956C9.34722 27.095 9.03162 27.0356 8.765 26.9175C8.50005 26.7994 8.29151 26.635 8.1394 26.4243C7.98894 26.2136 7.904 25.969 7.88457 25.6906L8.52093 25.6916C8.53719 25.8839 8.60156 26.0431 8.71404 26.1692C8.82818 26.2937 8.9722 26.3867 9.14611 26.4483C9.32167 26.5083 9.51054 26.5384 9.71272 26.5388C9.94804 26.5391 10.1594 26.5014 10.3468 26.4255C10.5342 26.3479 10.6827 26.2404 10.7923 26.103C10.9019 25.964 10.9568 25.8017 10.9571 25.6161C10.9574 25.4471 10.9104 25.3094 10.8161 25.2032C10.7218 25.097 10.5977 25.0106 10.4437 24.9441C10.2897 24.8775 10.1232 24.8193 9.94433 24.7693L9.31821 24.5892C8.92067 24.4742 8.60607 24.3105 8.37441 24.098C8.14276 23.8855 8.02721 23.6077 8.02778 23.2647C8.02825 22.9796 8.10572 22.7312 8.26018 22.5193C8.41631 22.3058 8.62539 22.1404 8.88742 22.0232C9.15112 21.9043 9.44537 21.8451 9.77018 21.8457C10.0983 21.8462 10.3899 21.9055 10.6449 22.0236C10.8999 22.14 11.1018 22.2994 11.2506 22.5019C11.4011 22.7043 11.4803 22.934 11.4881 23.1908L10.8915 23.1898ZM13.0759 24.7148L13.0721 27.0116L12.4855 27.0107L12.4939 21.9198L13.0805 21.9207L13.0774 23.79L13.1271 23.7901C13.217 23.5931 13.3515 23.4367 13.5306 23.321C13.7114 23.2036 13.9518 23.1452 14.2518 23.1457C14.512 23.1461 14.7397 23.1987 14.9351 23.3034C15.1305 23.4065 15.2819 23.565 15.3892 23.7789C15.4983 23.9912 15.5525 24.2615 15.552 24.5896L15.548 27.0157L14.9613 27.0147L14.9653 24.6284C14.9658 24.3251 14.8874 24.0905 14.7303 23.9245C14.5748 23.7569 14.3586 23.6728 14.0819 23.6724C13.8897 23.6721 13.7172 23.7124 13.5646 23.7933C13.4137 23.8743 13.2942 23.9926 13.2061 24.1482C13.1197 24.3038 13.0763 24.4927 13.0759 24.7148ZM18.1722 27.0996C17.8275 27.099 17.5252 27.0165 17.2653 26.852C17.007 26.6875 16.8053 26.4577 16.6599 26.1624C16.5162 25.8672 16.4447 25.5224 16.4453 25.128C16.446 24.7303 16.5187 24.3832 16.6633 24.0868C16.8097 23.7904 17.0122 23.5604 17.271 23.3967C17.5315 23.2331 17.834 23.1516 18.1787 23.1522C18.5234 23.1527 18.8249 23.2352 19.0831 23.3997C19.3431 23.5642 19.5449 23.7949 19.6885 24.0918C19.8339 24.3887 19.9062 24.736 19.9056 25.1337C19.9049 25.5281 19.8314 25.8727 19.6851 26.1674C19.5405 26.4622 19.3379 26.6914 19.0774 26.855C18.8187 27.0186 18.5169 27.1002 18.1722 27.0996ZM18.1731 26.5726C18.4349 26.573 18.6505 26.5063 18.8197 26.3723C18.989 26.2384 19.1144 26.0621 19.1959 25.8435C19.2775 25.6248 19.3185 25.3879 19.3189 25.1327C19.3193 24.8775 19.2791 24.6396 19.1983 24.4191C19.1175 24.1986 18.9926 24.0202 18.8238 23.884C18.655 23.7479 18.4397 23.6796 18.1779 23.6791C17.916 23.6787 17.7005 23.7463 17.5312 23.8819C17.362 24.0175 17.2365 24.1955 17.155 24.4157C17.0734 24.636 17.0324 24.8737 17.032 25.129C17.0316 25.3842 17.0718 25.6212 17.1526 25.8401C17.2335 26.059 17.3583 26.2357 17.5271 26.3702C17.6959 26.5047 17.9112 26.5722 18.1731 26.5726ZM20.7956 28.4562L20.8043 23.2062L21.371 23.2071L21.37 23.8137L21.4396 23.8138C21.4828 23.7476 21.5426 23.6631 21.619 23.5605C21.6971 23.4562 21.8083 23.3636 21.9526 23.2827C22.0985 23.2 22.2958 23.1589 22.5444 23.1594C22.8659 23.1599 23.1491 23.2407 23.3941 23.4019C23.6391 23.563 23.8302 23.7912 23.9672 24.0864C24.1043 24.3816 24.1725 24.7297 24.1718 25.1308C24.1712 25.5351 24.1018 25.8855 23.9638 26.1819C23.8257 26.4767 23.6348 26.7051 23.3909 26.8671C23.147 27.0274 22.866 27.1073 22.5478 27.1068C22.3026 27.1064 22.1062 27.0655 21.9589 26.984C21.8115 26.9009 21.6982 26.8071 21.6188 26.7026C21.5394 26.5964 21.4783 26.5084 21.4353 26.4388L21.3856 26.4387L21.3822 28.4572L20.7956 28.4562ZM21.3778 25.1162C21.3773 25.4046 21.4192 25.659 21.5033 25.8796C21.5875 26.0985 21.7107 26.2702 21.8729 26.3948C22.0351 26.5177 22.2338 26.5793 22.4691 26.5797C22.7144 26.5801 22.9192 26.5158 23.0835 26.3868C23.2494 26.2562 23.374 26.0807 23.4572 25.8604C23.5421 25.6385 23.5847 25.3917 23.5852 25.1199C23.5856 24.8514 23.5446 24.6094 23.4621 24.3938C23.3813 24.1766 23.2581 24.0049 23.0926 23.8787C22.9287 23.7508 22.7225 23.6866 22.4739 23.6862C22.2353 23.6858 22.0347 23.746 21.8721 23.8667C21.7095 23.9857 21.5866 24.1529 21.5033 24.3682C21.4201 24.5819 21.3783 24.8312 21.3778 25.1162Z" fill="url(#paint0_linear_60_17)"/>
<path d="M7.66954 11.0027L7.56954 11.0025L7.56938 11.1025L7.66938 11.1027L7.66954 11.0027ZM7.67794 5.91179L7.6781 5.81179L7.5781 5.81163L7.57794 5.91163L7.67794 5.91179ZM10.3772 6.12008L10.33 6.20827L10.3305 6.20851L10.3772 6.12008ZM10.943 6.67535L10.8543 6.72142L10.8543 6.72142L10.943 6.67535ZM10.9404 8.2762L10.852 8.22932L10.852 8.22932L10.9404 8.2762ZM10.3752 8.82214L10.4209 8.91107L10.4214 8.91084L10.3752 8.82214ZM8.01089 9.01462L7.91089 9.01445L7.91072 9.11445L8.01072 9.11462L8.01089 9.01462ZM8.01181 8.4578L8.01197 8.3578L7.91197 8.35764L7.91181 8.45764L8.01181 8.4578ZM10.0404 8.34183L9.99764 8.25144L9.99729 8.25161L10.0404 8.34183ZM10.4039 8.00436L10.3151 7.9583L10.3149 7.95869L10.4039 8.00436ZM10.4056 6.94293L10.4952 6.89835L10.4056 6.94293ZM10.0408 6.58934L9.99559 6.67854L9.9963 6.67889L10.0408 6.58934ZM8.29351 6.45968L8.29368 6.35968L8.19368 6.35952L8.19351 6.45952L8.29351 6.45968ZM8.28602 11.0037L8.28585 11.1037L8.38585 11.1039L8.38602 11.0039L8.28602 11.0037ZM10.0696 8.71972L10.1574 8.67182L10.129 8.61982L10.0698 8.61972L10.0696 8.71972ZM11.3187 11.0087L11.3185 11.1087L11.4873 11.109L11.4065 10.9608L11.3187 11.0087ZM10.6028 11.0075L10.5147 11.0548L10.5429 11.1074L10.6026 11.1075L10.6028 11.0075ZM9.37359 8.71857L9.37376 8.61857L9.20624 8.6183L9.28549 8.76588L9.37359 8.71857ZM7.76954 11.0029L7.77794 5.91196L7.57794 5.91163L7.56954 11.0025L7.76954 11.0029ZM7.67777 6.01179L9.39794 6.01463L9.39827 5.81463L7.6781 5.81179L7.67777 6.01179ZM9.39794 6.01463C9.78513 6.01527 10.0939 6.08204 10.33 6.20827L10.4243 6.03189C10.1505 5.8855 9.80654 5.8153 9.39827 5.81463L9.39794 6.01463ZM10.3305 6.20851C10.5691 6.33452 10.7422 6.50554 10.8543 6.72142L11.0318 6.62928C10.8993 6.37411 10.6952 6.17495 10.4239 6.03165L10.3305 6.20851ZM10.8543 6.72142C10.9682 6.94089 11.0261 7.19242 11.0256 7.4784L11.2256 7.47873C11.2262 7.1648 11.1624 6.88086 11.0318 6.62928L10.8543 6.72142ZM11.0256 7.4784C11.0252 7.76441 10.9664 8.01385 10.852 8.22932L11.0287 8.32307C11.1604 8.07494 11.2251 7.79262 11.2256 7.47873L11.0256 7.4784ZM10.852 8.22932C10.7394 8.44162 10.5665 8.60976 10.329 8.73345L10.4214 8.91084C10.6914 8.77021 10.8953 8.57438 11.0287 8.32307L10.852 8.22932ZM10.3295 8.73321C10.0943 8.85416 9.78732 8.91755 9.4031 8.91692L9.40277 9.11692C9.80737 9.11758 10.1486 9.05112 10.4209 8.91107L10.3295 8.73321ZM9.4031 8.91692L8.01105 8.91462L8.01072 9.11462L9.40277 9.11692L9.4031 8.91692ZM8.11089 9.01478L8.11181 8.45797L7.91181 8.45764L7.91089 9.01445L8.11089 9.01478ZM8.01164 8.5578L9.3838 8.56007L9.38413 8.36007L8.01197 8.3578L8.01164 8.5578ZM9.3838 8.56007C9.66398 8.56053 9.89928 8.52012 10.0835 8.43205L9.99729 8.25161C9.84984 8.32208 9.64751 8.3605 9.38413 8.36007L9.3838 8.56007ZM10.0832 8.43222C10.2678 8.34483 10.4067 8.21787 10.4929 8.05004L10.3149 7.95869C10.2515 8.08227 10.148 8.18029 9.99764 8.25144L10.0832 8.43222ZM10.4927 8.05042C10.578 7.88601 10.6188 7.69395 10.6191 7.47773L10.4191 7.4774C10.4188 7.66884 10.3828 7.82799 10.3151 7.9583L10.4927 8.05042ZM10.6191 7.47773C10.6195 7.26138 10.5793 7.0673 10.4952 6.89835L10.3161 6.9875C10.384 7.12373 10.4194 7.28607 10.4191 7.4774L10.6191 7.47773ZM10.4952 6.89835C10.4085 6.72439 10.2701 6.59164 10.0853 6.4998L9.9963 6.67889C10.146 6.75331 10.2508 6.85629 10.3161 6.9875L10.4952 6.89835ZM10.086 6.50015C9.89985 6.40575 9.66148 6.36194 9.37748 6.36147L9.37715 6.56147C9.64335 6.56191 9.84731 6.60335 9.99559 6.67853L10.086 6.50015ZM9.37748 6.36147L8.29368 6.35968L8.29335 6.55968L9.37715 6.56147L9.37748 6.36147ZM8.19351 6.45952L8.18602 11.0035L8.38602 11.0039L8.39351 6.45985L8.19351 6.45952ZM8.28618 10.9037L7.66971 10.9027L7.66938 11.1027L8.28585 11.1037L8.28618 10.9037ZM9.98184 8.76762L11.2309 11.0566L11.4065 10.9608L10.1574 8.67182L9.98184 8.76762ZM11.3188 10.9087L10.6029 10.9075L10.6026 11.1075L11.3185 11.1087L11.3188 10.9087ZM10.6909 10.9602L9.4617 8.67126L9.28549 8.76588L10.5147 11.0548L10.6909 10.9602ZM9.37343 8.81857L10.0695 8.81972L10.0698 8.61972L9.37376 8.61857L9.37343 8.81857ZM12.0675 11.01L11.9675 11.0098L11.9674 11.1098L12.0674 11.11L12.0675 11.01ZM12.0738 7.19177L12.074 7.09177L11.974 7.09161L11.9738 7.19161L12.0738 7.19177ZM12.6605 7.19274L12.7605 7.19291L12.7606 7.09291L12.6606 7.09274L12.6605 7.19274ZM12.6542 11.0109L12.654 11.1109L12.754 11.1111L12.7542 11.0111L12.6542 11.0109ZM12.0776 6.43858L12.0082 6.51064L12.0089 6.51133L12.0776 6.43858ZM12.0785 5.87679L12.0101 5.80381L12.0094 5.80451L12.0785 5.87679ZM12.6676 5.87777L12.5983 5.94982L12.599 5.95052L12.6676 5.87777ZM12.6667 6.43955L12.5983 6.36658L12.5976 6.36727L12.6667 6.43955ZM12.1675 11.0101L12.1738 7.19194L11.9738 7.19161L11.9675 11.0098L12.1675 11.0101ZM12.0737 7.29177L12.6603 7.29274L12.6606 7.09274L12.074 7.09177L12.0737 7.29177ZM12.5605 7.19258L12.5542 11.0108L12.7542 11.0111L12.7605 7.19291L12.5605 7.19258ZM12.6543 10.9109L12.0677 10.91L12.0674 11.11L12.654 11.1109L12.6543 10.9109ZM12.3733 6.4559C12.2843 6.45576 12.2103 6.42629 12.1462 6.36583L12.0089 6.51133C12.1103 6.60693 12.2334 6.65567 12.373 6.6559L12.3733 6.4559ZM12.1469 6.36653C12.0848 6.30679 12.0561 6.23891 12.0562 6.15765L11.8562 6.15732C11.856 6.29481 11.9081 6.41433 12.0082 6.51064L12.1469 6.36653ZM12.0562 6.15765C12.0563 6.07639 12.0853 6.00861 12.1476 5.94908L12.0094 5.80451C11.909 5.90048 11.8564 6.01983 11.8562 6.15732L12.0562 6.15765ZM12.1469 5.94977C12.2112 5.88953 12.2853 5.8603 12.3743 5.86045L12.3746 5.66045C12.235 5.66022 12.1118 5.70856 12.0101 5.80382L12.1469 5.94977ZM12.3743 5.86045C12.4633 5.8606 12.5361 5.89001 12.5983 5.94982L12.737 5.80571C12.637 5.70948 12.5143 5.66068 12.3746 5.66045L12.3743 5.86045ZM12.599 5.95052C12.6626 6.01045 12.6916 6.07813 12.6914 6.1587L12.8914 6.15903C12.8917 6.02085 12.8381 5.90113 12.7362 5.80502L12.599 5.95052ZM12.6914 6.1587C12.6913 6.23927 12.6621 6.30685 12.5983 6.36658L12.7351 6.51253C12.8373 6.41676 12.8912 6.29721 12.8914 6.15903L12.6914 6.1587ZM12.5976 6.36727C12.5352 6.42688 12.4623 6.45605 12.3733 6.4559L12.373 6.6559C12.5127 6.65613 12.6355 6.60774 12.7358 6.51184L12.5976 6.36727ZM16.8571 7.19966L16.9508 7.2345L17.0009 7.0999L16.8573 7.09966L16.8571 7.19966ZM15.4389 11.0155L15.4387 11.1155L15.5084 11.1156L15.5326 11.0504L15.4389 11.0155ZM14.8423 11.0145L14.7484 11.0491L14.7725 11.1144L14.8421 11.1145L14.8423 11.0145ZM13.4367 7.19402L13.4368 7.09402L13.2932 7.09379L13.3428 7.22855L13.4367 7.19402ZM14.073 7.19507L14.1676 7.1625L14.1444 7.09519L14.0732 7.09507L14.073 7.19507ZM15.122 10.2394L15.0274 10.272L15.0506 10.3393L15.1218 10.3394L15.122 10.2394ZM15.1618 10.2395L15.1616 10.3395L15.2328 10.3396L15.2562 10.2724L15.1618 10.2395ZM16.2207 7.19861L16.2209 7.09861L16.1497 7.0985L16.1263 7.16573L16.2207 7.19861ZM16.7634 7.16483L15.3451 10.9807L15.5326 11.0504L16.9508 7.2345L16.7634 7.16483ZM15.439 10.9155L14.8425 10.9145L14.8421 11.1145L15.4387 11.1155L15.439 10.9155ZM14.9361 10.98L13.5305 7.15949L13.3428 7.22855L14.7484 11.0491L14.9361 10.98ZM13.4365 7.29402L14.0729 7.29507L14.0732 7.09507L13.4368 7.09402L13.4365 7.29402ZM13.9785 7.22765L15.0274 10.272L15.2165 10.2068L14.1676 7.1625L13.9785 7.22765ZM15.1218 10.3394L15.1616 10.3395L15.1619 10.1395L15.1221 10.1394L15.1218 10.3394ZM15.2562 10.2724L16.3152 7.2315L16.1263 7.16573L15.0673 10.2066L15.2562 10.2724ZM16.2206 7.29861L16.8569 7.29966L16.8573 7.09966L16.2209 7.09861L16.2206 7.29861ZM17.9738 10.9725L17.9311 11.0629L17.9317 11.0632L17.9738 10.9725ZM17.5047 10.5715L17.4212 10.6264L17.4214 10.6268L17.5047 10.5715ZM17.4619 9.40308L17.5462 9.45677L17.5465 9.45631L17.4619 9.40308ZM17.8079 9.0805L17.7605 8.99244L17.8079 9.0805ZM18.2855 8.90728L18.3067 9.005L18.3074 9.00485L18.2855 8.90728ZM18.8151 8.81369L18.8025 8.71449L18.8023 8.71452L18.8151 8.81369ZM19.3795 8.74751L19.3896 8.847L19.3906 8.84689L19.3795 8.74751ZM19.6978 8.666L19.649 8.5787L19.6481 8.57923L19.6978 8.666ZM19.5997 7.87535L19.528 7.94507L19.5284 7.94551L19.5997 7.87535ZM18.3369 7.85338L18.3979 7.93269L18.3979 7.93269L18.3369 7.85338ZM18.0007 8.24559L17.9669 8.3397L18.0528 8.37053L18.0913 8.28785L18.0007 8.24559ZM17.4442 8.0458L17.3524 8.00626L17.3103 8.10398L17.4104 8.13992L17.4442 8.0458ZM17.8428 7.50456L17.9042 7.58351L17.9043 7.58343L17.8428 7.50456ZM18.3902 7.23202L18.4152 7.32884L18.4158 7.32869L18.3902 7.23202ZM19.3995 7.19889L19.3809 7.29715L19.382 7.29736L19.3995 7.19889ZM19.864 7.37614L19.8124 7.46181L19.8128 7.46206L19.864 7.37614ZM20.2387 7.78195L20.151 7.83003L20.151 7.83003L20.2387 7.78195ZM20.3825 11.0237L20.3823 11.1237L20.4823 11.1238L20.4825 11.0238L20.3825 11.0237ZM19.7959 11.0227L19.6959 11.0225L19.6957 11.1225L19.7957 11.1227L19.7959 11.0227ZM19.7967 10.5057L19.8967 10.5058L19.8969 10.4058L19.7969 10.4057L19.7967 10.5057ZM19.7669 10.5056L19.767 10.4056L19.7041 10.4055L19.6768 10.4622L19.7669 10.5056ZM19.5676 10.7713L19.6388 10.8415L19.6388 10.8415L19.5676 10.7713ZM19.1968 11.0118L19.1574 10.9198L19.1968 11.0118ZM19.3096 10.4477L19.2604 10.3606L19.26 10.3608L19.3096 10.4477ZM19.6731 10.0953L19.5865 10.0453L19.586 10.0461L19.6731 10.0953ZM19.799 9.10367L19.899 9.10383L19.8995 8.82763L19.7223 9.03952L19.799 9.10367ZM19.6348 9.18543L19.6616 9.28178L19.6629 9.28141L19.6348 9.18543ZM19.3464 9.2471L19.3614 9.34597L19.3626 9.34576L19.3464 9.2471ZM19.0306 9.29132L19.0418 9.3907L19.0432 9.39052L19.0306 9.29132ZM18.7845 9.32074L18.7972 9.41993L18.7973 9.41991L18.7845 9.32074ZM18.3567 9.41698L18.3878 9.51203L18.3886 9.51179L18.3567 9.41698ZM18.0382 9.61284L17.9649 9.54483L17.9649 9.54489L18.0382 9.61284ZM18.1438 10.4284L18.0867 10.5105L18.0878 10.5112L18.1438 10.4284ZM18.6325 11.0103C18.4034 11.0099 18.1984 10.9665 18.016 10.8818L17.9317 11.0632C18.1434 11.1614 18.3774 11.2098 18.6322 11.2103L18.6325 11.0103ZM18.0166 10.8821C17.8353 10.7964 17.6932 10.6745 17.588 10.5161L17.4214 10.6268C17.5476 10.8168 17.7183 10.9623 17.9311 11.0629L18.0166 10.8821ZM17.5882 10.5165C17.4851 10.3598 17.4314 10.1676 17.4317 9.93499L17.2317 9.93466C17.2313 10.1992 17.2928 10.4314 17.4212 10.6264L17.5882 10.5165ZM17.4317 9.93499C17.4321 9.7286 17.4731 9.57174 17.5462 9.45677L17.3775 9.34939C17.2779 9.50591 17.2321 9.70355 17.2317 9.93466L17.4317 9.93499ZM17.5465 9.45631C17.6236 9.33369 17.7261 9.2381 17.8553 9.16856L17.7605 8.99244C17.6012 9.0782 17.4729 9.19766 17.3772 9.34985L17.5465 9.45631ZM17.8553 9.16856C17.9907 9.0957 18.141 9.04101 18.3067 9.005L18.2643 8.80956C18.0819 8.8492 17.9138 8.90999 17.7605 8.99244L17.8553 9.16856ZM18.3074 9.00485C18.4802 8.96603 18.6537 8.93538 18.8279 8.91287L18.8023 8.71452C18.6219 8.73782 18.4423 8.76956 18.2636 8.80971L18.3074 9.00485ZM18.8277 8.9129C19.0594 8.8835 19.2466 8.86155 19.3896 8.84699L19.3694 8.64802C19.224 8.66282 19.035 8.68499 18.8025 8.71449L18.8277 8.9129ZM19.3906 8.84689C19.5399 8.83017 19.6628 8.80129 19.7475 8.75277L19.6481 8.57923C19.6001 8.60672 19.5109 8.63217 19.3684 8.64813L19.3906 8.84689ZM19.7466 8.75329C19.8534 8.69362 19.8999 8.58901 19.9001 8.46747L19.7001 8.46714C19.7 8.53452 19.6783 8.56237 19.649 8.5787L19.7466 8.75329ZM19.9001 8.46747L19.9001 8.44758L19.7001 8.44725L19.7001 8.46714L19.9001 8.46747ZM19.9001 8.44758C19.9005 8.18382 19.8283 7.96497 19.671 7.8052L19.5284 7.94551C19.6392 8.05796 19.7005 8.22049 19.7001 8.44725L19.9001 8.44758ZM19.6714 7.80564C19.5135 7.64326 19.2817 7.57099 18.9962 7.57052L18.9958 7.77052C19.2505 7.77094 19.4212 7.83523 19.528 7.94507L19.6714 7.80564ZM18.9962 7.57052C18.7025 7.57004 18.4586 7.63385 18.276 7.77408L18.3979 7.93269C18.5339 7.82818 18.7293 7.77008 18.9958 7.77052L18.9962 7.57052ZM18.276 7.77408C18.1078 7.90332 17.9835 8.04588 17.9101 8.20333L18.0913 8.28785C18.1477 8.1671 18.2475 8.04819 18.3979 7.93269L18.276 7.77408ZM18.0345 8.15147L17.478 7.95169L17.4104 8.13992L17.9669 8.3397L18.0345 8.15147ZM17.5361 8.08535C17.6306 7.8659 17.754 7.70025 17.9042 7.58351L17.7815 7.42561C17.5998 7.56684 17.4575 7.76203 17.3524 8.00626L17.5361 8.08535ZM17.9043 7.58343C18.0616 7.46083 18.2317 7.37631 18.4152 7.32883L18.3651 7.13521C18.154 7.18983 17.9593 7.287 17.7814 7.42569L17.9043 7.58343ZM18.4158 7.32869C18.6069 7.27806 18.7938 7.25314 18.9768 7.25345L18.9771 7.05345C18.7756 7.05311 18.5713 7.08058 18.3646 7.13536L18.4158 7.32869ZM18.9768 7.25345C19.0916 7.25363 19.2261 7.26786 19.3809 7.29714L19.4181 7.10063C19.2547 7.06973 19.1075 7.05366 18.9771 7.05345L18.9768 7.25345ZM19.382 7.29736C19.5299 7.32352 19.6732 7.37798 19.8124 7.46181L19.9156 7.29048C19.7568 7.19484 19.5904 7.13113 19.4169 7.10042L19.382 7.29736ZM19.8128 7.46206C19.9457 7.54117 20.0589 7.6621 20.151 7.83003L20.3264 7.73387C20.2202 7.5402 20.0837 7.39059 19.9152 7.29023L19.8128 7.46206ZM20.151 7.83003C20.2391 7.9907 20.2871 8.2141 20.2867 8.50788L20.4867 8.50821C20.4872 8.19546 20.4366 7.9348 20.3264 7.73387L20.151 7.83003ZM20.2867 8.50788L20.2825 11.0235L20.4825 11.0238L20.4867 8.50821L20.2867 8.50788ZM20.3827 10.9237L19.796 10.9227L19.7957 11.1227L20.3823 11.1237L20.3827 10.9237ZM19.8959 11.0229L19.8967 10.5058L19.6967 10.5055L19.6959 11.0225L19.8959 11.0229ZM19.7969 10.4057L19.767 10.4056L19.7667 10.6056L19.7965 10.6057L19.7969 10.4057ZM19.6768 10.4622C19.6433 10.5318 19.5847 10.6114 19.4964 10.7011L19.6388 10.8415C19.7364 10.7425 19.8107 10.645 19.857 10.549L19.6768 10.4622ZM19.4964 10.7011C19.4146 10.784 19.3028 10.8576 19.1574 10.9198L19.2362 11.1037C19.3993 11.0339 19.5347 10.9471 19.6388 10.8415L19.4964 10.7011ZM19.1574 10.9198C19.019 10.9791 18.8452 11.0106 18.6325 11.0103L18.6322 11.2103C18.8637 11.2107 19.0661 11.1765 19.2362 11.1037L19.1574 10.9198ZM18.7225 10.6834C18.9674 10.6838 19.1813 10.6361 19.3592 10.5345L19.26 10.3608C19.1194 10.4411 18.942 10.4838 18.7229 10.4834L18.7225 10.6834ZM19.3588 10.5347C19.5336 10.436 19.6687 10.3062 19.7601 10.1445L19.586 10.0461C19.5146 10.1725 19.4074 10.2776 19.2604 10.3606L19.3588 10.5347ZM19.7597 10.1453C19.8511 9.98679 19.8978 9.81815 19.8981 9.64076L19.6981 9.64043C19.6979 9.78123 19.6612 9.91572 19.5865 10.0453L19.7597 10.1453ZM19.8981 9.64076L19.899 9.10383L19.699 9.1035L19.6981 9.64043L19.8981 9.64076ZM19.7223 9.03952C19.7223 9.0395 19.7161 9.04631 19.6947 9.05693C19.6744 9.06705 19.6456 9.07809 19.6068 9.08944L19.6629 9.28141C19.7086 9.26805 19.7494 9.25311 19.7839 9.23597C19.8173 9.21934 19.8508 9.19762 19.8757 9.16781L19.7223 9.03952ZM19.608 9.08909C19.5294 9.11096 19.4369 9.13081 19.3301 9.14843L19.3626 9.34576C19.4746 9.32729 19.5744 9.30602 19.6616 9.28177L19.608 9.08909ZM19.3313 9.14823C19.2243 9.16451 19.1199 9.17914 19.018 9.19212L19.0432 9.39052C19.1468 9.37732 19.2529 9.36247 19.3614 9.34596L19.3313 9.14823ZM19.0194 9.19195C18.918 9.20342 18.8353 9.2133 18.7716 9.22158L18.7973 9.41991C18.8596 9.41183 18.941 9.40209 19.0418 9.39069L19.0194 9.19195ZM18.7717 9.22156C18.6133 9.24195 18.4643 9.27539 18.3249 9.32218L18.3886 9.51179C18.5144 9.46953 18.6506 9.43881 18.7972 9.41993L18.7717 9.22156ZM18.3256 9.32195C18.181 9.36929 18.0595 9.4429 17.9649 9.54483L18.1116 9.68084C18.1797 9.60738 18.2705 9.55043 18.3878 9.51202L18.3256 9.32195ZM17.9649 9.54489C17.8638 9.65399 17.8186 9.79826 17.8183 9.96546L18.0183 9.96579C18.0186 9.83469 18.0533 9.74377 18.1116 9.68079L17.9649 9.54489ZM17.8183 9.96546C17.818 10.1978 17.9058 10.3848 18.0867 10.5105L18.2008 10.3462C18.0805 10.2626 18.018 10.1411 18.0183 9.96579L17.8183 9.96546ZM18.0878 10.5112C18.2605 10.628 18.4744 10.683 18.7225 10.6834L18.7229 10.4834C18.5037 10.4831 18.3316 10.4347 18.1998 10.3455L18.0878 10.5112ZM22.0399 11.0264L22.0397 11.1264L22.1397 11.1266L22.1399 11.0266L22.0399 11.0264ZM21.4533 11.0254L21.3533 11.0253L21.3531 11.1253L21.4531 11.1254L21.4533 11.0254ZM21.4596 7.20726L21.4597 7.10726L21.3597 7.10709L21.3596 7.20709L21.4596 7.20726ZM22.0263 7.20819L22.1263 7.20836L22.1265 7.10836L22.0265 7.10819L22.0263 7.20819ZM22.0253 7.80478L21.9253 7.80462L21.9252 7.90462L22.0252 7.90478L22.0253 7.80478ZM22.075 7.80486L22.0749 7.90486L22.1389 7.90497L22.1658 7.84692L22.075 7.80486ZM22.4835 7.33821L22.5376 7.42232L22.5381 7.42197L22.4835 7.33821ZM23.8681 7.3206L23.82 7.40826L23.8206 7.40857L23.8681 7.3206ZM24.3197 7.79862L24.2304 7.84347L24.2305 7.84375L24.3197 7.79862ZM24.476 11.0304L24.4758 11.1304L24.5758 11.1306L24.576 11.0306L24.476 11.0304ZM23.8893 11.0295L23.7893 11.0293L23.7892 11.1293L23.8892 11.1295L23.8893 11.0295ZM23.6608 7.94171L23.5871 8.00936L23.5874 8.00972L23.6608 7.94171ZM22.5175 7.80808L22.4694 7.7204L22.469 7.72063L22.5175 7.80808ZM22.1714 8.16298L22.0836 8.11514L22.0836 8.11514L22.1714 8.16298ZM21.9437 8.72936L21.9399 11.0262L22.1399 11.0266L22.1437 8.72969L21.9437 8.72936ZM22.0401 10.9264L21.4534 10.9254L21.4531 11.1254L22.0397 11.1264L22.0401 10.9264ZM21.5533 11.0256L21.5596 7.20742L21.3596 7.20709L21.3533 11.0253L21.5533 11.0256ZM21.4594 7.30726L22.0262 7.30819L22.0265 7.10819L21.4597 7.10726L21.4594 7.30726ZM21.9263 7.20803L21.9253 7.80462L22.1253 7.80495L22.1263 7.20836L21.9263 7.20803ZM22.0252 7.90478L22.0749 7.90486L22.0752 7.70486L22.0255 7.70478L22.0252 7.90478ZM22.1658 7.84692C22.2475 7.67067 22.3708 7.52959 22.5376 7.42231L22.4294 7.2541C22.2312 7.38154 22.0822 7.55157 21.9843 7.76281L22.1658 7.84692ZM22.5381 7.42197C22.6998 7.31651 22.9145 7.25994 23.1896 7.26039L23.1899 7.06039C22.8883 7.0599 22.6321 7.12187 22.4289 7.25445L22.5381 7.42197ZM23.1896 7.26039C23.4342 7.2608 23.6433 7.31122 23.82 7.40826L23.9162 7.23295C23.7055 7.11723 23.4623 7.06084 23.1899 7.06039L23.1896 7.26039ZM23.8206 7.40857C23.9947 7.50269 24.1313 7.64616 24.2304 7.84347L24.4091 7.75377C24.2934 7.52317 24.129 7.34796 23.9157 7.23264L23.8206 7.40857ZM24.2305 7.84375C24.3287 8.03784 24.3805 8.28959 24.38 8.60412L24.58 8.60445C24.5805 8.26936 24.5255 7.984 24.409 7.75349L24.2305 7.84375ZM24.38 8.60412L24.376 11.0303L24.576 11.0306L24.58 8.60445L24.38 8.60412ZM24.4761 10.9304L23.8895 10.9295L23.8892 11.1295L24.4758 11.1304L24.4761 10.9304ZM23.9893 11.0296L23.9933 8.64326L23.7933 8.64293L23.7893 11.0293L23.9893 11.0296ZM23.9933 8.64326C23.9938 8.32613 23.9116 8.06506 23.7341 7.8737L23.5874 8.00972C23.7209 8.15363 23.7937 8.36015 23.7933 8.64293L23.9933 8.64326ZM23.7344 7.87407C23.5566 7.68044 23.3142 7.58759 23.02 7.5871L23.0197 7.7871C23.2691 7.78751 23.454 7.8644 23.5871 8.00936L23.7344 7.87407ZM23.02 7.5871C22.8178 7.58677 22.6334 7.63045 22.4694 7.7204L22.5656 7.89576C22.6968 7.82379 22.8474 7.78682 23.0197 7.7871L23.02 7.5871ZM22.469 7.72063C22.3054 7.81138 22.1769 7.94392 22.0836 8.11514L22.2592 8.21081C22.3355 8.07077 22.4377 7.96671 22.566 7.89553L22.469 7.72063ZM22.0836 8.11514C21.9891 8.28866 21.9441 8.49478 21.9437 8.72936L22.1437 8.72969C22.144 8.52015 22.1842 8.34857 22.2592 8.21081L22.0836 8.11514ZM10.4689 15.5073L10.3738 15.5382L10.3962 15.6072L10.4687 15.6073L10.4689 15.5073ZM10.2534 15.057L10.1696 15.1117L10.1704 15.1128L10.2534 15.057ZM9.93824 14.7135L9.87656 14.7922L9.87708 14.7926L9.93824 14.7135ZM9.52595 14.4965L9.55681 14.4014L9.55681 14.4014L9.52595 14.4965ZM7.60552 15.341L7.69557 15.3845L7.69557 15.3845L7.60552 15.341ZM7.60432 17.5733L7.51432 17.6169L7.51432 17.6169L7.60432 17.5733ZM8.20226 18.2628L8.14953 18.3478L8.20226 18.2628ZM9.82292 18.3127L9.87162 18.4001L9.87184 18.3999L9.82292 18.3127ZM10.3458 17.7816L10.2582 17.7335L10.258 17.7337L10.3458 17.7816ZM10.5361 16.9691L10.5568 16.8713L10.4363 16.8457L10.4361 16.9689L10.5361 16.9691ZM10.7249 17.0092L10.7248 17.1092L10.7457 16.9113L10.7249 17.0092ZM9.19368 17.0066L9.09369 17.0065L9.09352 17.1065L9.19352 17.1066L9.19368 17.0066ZM9.19459 16.4598L9.19475 16.3598L9.09475 16.3596L9.09459 16.4596L9.19459 16.4598ZM11.1335 16.463L11.2335 16.4631L11.2337 16.3631L11.1337 16.363L11.1335 16.463ZM10.8623 18.1031L10.7758 18.053L10.7756 18.0533L10.8623 18.1031ZM10.1253 18.8228L10.1729 18.9108L10.1731 18.9107L10.1253 18.8228ZM7.86339 18.7544L7.81028 18.8392L7.81047 18.8393L7.86339 18.7544ZM7.06942 17.8483L6.97931 17.8917L6.97946 17.892L7.06942 17.8483ZM6.95171 15.3698L6.85704 15.3376L6.85694 15.3378L6.95171 15.3698ZM7.41543 14.5452L7.49054 14.6113L7.49054 14.6113L7.41543 14.5452ZM8.12225 14.0244L8.08174 13.933L8.12225 14.0244ZM9.77043 13.9675L9.73724 14.0618L9.73805 14.0621L9.77043 13.9675ZM10.3938 14.309L10.3308 14.3867L10.3316 14.3873L10.3938 14.309ZM10.8528 14.8343L10.767 14.8857L10.7672 14.886L10.8528 14.8343ZM11.1053 15.5084L11.1051 15.6084L11.2256 15.6086L11.2036 15.4901L11.1053 15.5084ZM10.564 15.4764C10.507 15.301 10.4313 15.1424 10.3363 15.0012L10.1704 15.1128C10.254 15.2371 10.322 15.3787 10.3738 15.5382L10.564 15.4764ZM10.3371 15.0024C10.2436 14.859 10.131 14.7361 9.99939 14.6344L9.87708 14.7926C9.99038 14.8802 10.0879 14.9863 10.1696 15.1116L10.3371 15.0024ZM9.99991 14.6348C9.86936 14.5325 9.72138 14.4548 9.55681 14.4014L9.49509 14.5916C9.6386 14.6382 9.76547 14.7052 9.87656 14.7922L9.99991 14.6348ZM9.55681 14.4014C9.39161 14.3478 9.21211 14.3214 9.01914 14.3211L9.01881 14.5211C9.19373 14.5214 9.35221 14.5453 9.49509 14.5916L9.55681 14.4014ZM9.01914 14.3211C8.6993 14.3206 8.40629 14.403 8.14257 14.5688L8.24901 14.7381C8.47965 14.5931 8.73543 14.5207 9.01881 14.5211L9.01914 14.3211ZM8.14257 14.5688C7.87718 14.7356 7.6687 14.9802 7.51547 15.2975L7.69557 15.3845C7.83501 15.0958 8.02004 14.882 8.24901 14.7381L8.14257 14.5688ZM7.51547 15.2975C7.36092 15.6176 7.28568 16.0053 7.28493 16.4566L7.48493 16.4569C7.48564 16.0267 7.55746 15.6705 7.69557 15.3845L7.51547 15.2975ZM7.28493 16.4566C7.28419 16.9081 7.35902 17.2962 7.51432 17.6169L7.69433 17.5297C7.55565 17.2433 7.48422 16.8871 7.48493 16.4569L7.28493 16.4566ZM7.51432 17.6169C7.66839 17.935 7.87966 18.1803 8.14953 18.3478L8.255 18.1779C8.0216 18.033 7.83424 17.8186 7.69433 17.5297L7.51432 17.6169ZM8.14953 18.3478C8.41796 18.5144 8.71963 18.5973 9.05186 18.5979L9.05219 18.3979C8.75468 18.3974 8.48984 18.3236 8.255 18.1779L8.14953 18.3478ZM9.05186 18.5979C9.35809 18.5984 9.63235 18.5335 9.87162 18.4001L9.77423 18.2254C9.56896 18.3398 9.32928 18.3983 9.05219 18.3979L9.05186 18.5979ZM9.87184 18.3999C10.1124 18.265 10.3001 18.0743 10.4336 17.8295L10.258 17.7337C10.1422 17.946 9.98131 18.1092 9.77401 18.2255L9.87184 18.3999ZM10.4335 17.8297C10.5693 17.5824 10.6355 17.2944 10.6361 16.9692L10.4361 16.9689C10.4356 17.2668 10.375 17.5206 10.2582 17.7335L10.4335 17.8297ZM10.5153 17.0669L10.7042 17.107L10.7457 16.9113L10.5568 16.8713L10.5153 17.0669ZM10.7251 16.9092L9.19385 16.9066L9.19352 17.1066L10.7248 17.1092L10.7251 16.9092ZM9.29368 17.0068L9.29459 16.4599L9.09459 16.4596L9.09369 17.0065L9.29368 17.0068ZM9.19442 16.5598L11.1333 16.563L11.1337 16.363L9.19475 16.3598L9.19442 16.5598ZM11.0335 16.4628L11.0326 17.0097L11.2326 17.01L11.2335 16.4631L11.0335 16.4628ZM11.0326 17.0097C11.0319 17.4144 10.9451 17.761 10.7758 18.053L10.9488 18.1533C11.1385 17.8261 11.2319 17.4438 11.2326 17.01L11.0326 17.0097ZM10.7756 18.0533C10.607 18.3469 10.3748 18.5736 10.0776 18.7349L10.1731 18.9107C10.5028 18.7317 10.762 18.4786 10.949 18.1529L10.7756 18.0533ZM10.0778 18.7348C9.78258 18.8944 9.4413 18.9752 9.05123 18.9746L9.0509 19.1746C9.46954 19.1753 9.84446 19.0883 10.1729 18.9108L10.0778 18.7348ZM9.05123 18.9746C8.6168 18.9739 8.23964 18.8712 7.9163 18.6696L7.81047 18.8393C8.1692 19.063 8.58383 19.1738 9.0509 19.1746L9.05123 18.9746ZM7.91649 18.6697C7.59438 18.4678 7.34187 18.1807 7.15939 17.8046L6.97946 17.892C7.17685 18.2987 7.45364 18.6157 7.81028 18.8392L7.91649 18.6697ZM7.15954 17.805C6.97915 17.4299 6.88747 16.9813 6.88834 16.456L6.68834 16.4556C6.68744 17.0041 6.78315 17.4838 6.97931 17.8917L7.15954 17.805ZM6.88834 16.456C6.88899 16.0621 6.94225 15.7111 7.04648 15.4017L6.85694 15.3378C6.74467 15.6711 6.68902 16.0441 6.68834 16.4556L6.88834 16.456ZM7.04638 15.402C7.1526 15.0898 7.30104 14.8269 7.49054 14.6113L7.34031 14.4792C7.13134 14.717 6.97063 15.0038 6.85704 15.3376L7.04638 15.402ZM7.49054 14.6113C7.68037 14.3953 7.90422 14.2304 8.16277 14.1158L8.08174 13.933C7.79632 14.0595 7.54896 14.2418 7.34031 14.4792L7.49054 14.6113ZM8.16277 14.1158C8.42074 14.0015 8.70593 13.9439 9.01976 13.9444L9.02009 13.7444C8.68099 13.7439 8.36773 13.8062 8.08174 13.933L8.16277 14.1158ZM9.01976 13.9444C9.27801 13.9448 9.51691 13.9843 9.73724 14.0618L9.80362 13.8731C9.5602 13.7875 9.29877 13.7449 9.02009 13.7444L9.01976 13.9444ZM9.73805 14.0621C9.96104 14.1384 10.1583 14.2467 10.3308 14.3867L10.4568 14.2314C10.2652 14.0758 10.0469 13.9564 9.80281 13.8728L9.73805 14.0621ZM10.3316 14.3873C10.5057 14.5259 10.6508 14.6918 10.767 14.8857L10.9386 14.7829C10.8102 14.5687 10.6493 14.3845 10.4561 14.2308L10.3316 14.3873ZM10.7672 14.886C10.8829 15.0775 10.963 15.2907 11.0069 15.5267L11.2036 15.4901C11.1555 15.232 11.0673 14.9959 10.9384 14.7826L10.7672 14.886ZM11.1054 15.4084L10.4691 15.4073L10.4687 15.6073L11.1051 15.6084L11.1054 15.4084ZM12.5705 18.9636L12.5278 19.054L12.5284 19.0543L12.5705 18.9636ZM12.1014 18.5626L12.0178 18.6175L12.0181 18.6179L12.1014 18.5626ZM12.0586 17.3942L12.1429 17.4479L12.1432 17.4474L12.0586 17.3942ZM12.4046 17.0716L12.3572 16.9835L12.4046 17.0716ZM12.8822 16.8984L12.9034 16.9961L12.9041 16.9959L12.8822 16.8984ZM13.4118 16.8048L13.3992 16.7056L13.399 16.7056L13.4118 16.8048ZM13.9762 16.7386L13.9863 16.8381L13.9873 16.838L13.9762 16.7386ZM14.2945 16.6571L14.2457 16.5698L14.2448 16.5703L14.2945 16.6571ZM14.1964 15.8665L14.1247 15.9362L14.1251 15.9366L14.1964 15.8665ZM12.9336 15.8445L12.9945 15.9238L12.9945 15.9238L12.9336 15.8445ZM12.5974 16.2367L12.5636 16.3308L12.6495 16.3616L12.688 16.2789L12.5974 16.2367ZM12.0409 16.0369L11.9491 15.9974L11.907 16.0951L12.0071 16.131L12.0409 16.0369ZM12.4395 15.4957L12.5009 15.5746L12.501 15.5745L12.4395 15.4957ZM12.9868 15.2231L13.0119 15.3199L13.0125 15.3198L12.9868 15.2231ZM13.9961 15.19L13.9775 15.2882L13.9787 15.2885L13.9961 15.19ZM14.4607 15.3672L14.4091 15.4529L14.4095 15.4532L14.4607 15.3672ZM14.8354 15.773L14.7477 15.8211L14.7477 15.8211L14.8354 15.773ZM14.9792 19.0148L14.979 19.1148L15.079 19.1149L15.0792 19.0149L14.9792 19.0148ZM14.3925 19.0138L14.2925 19.0136L14.2924 19.1136L14.3924 19.1138L14.3925 19.0138ZM14.3934 18.4968L14.4934 18.4969L14.4935 18.3969L14.3935 18.3968L14.3934 18.4968ZM14.3636 18.4967L14.3637 18.3967L14.3008 18.3966L14.2735 18.4533L14.3636 18.4967ZM14.1643 18.7624L14.2355 18.8326L14.2355 18.8326L14.1643 18.7624ZM13.7935 19.0029L13.7541 18.9109L13.7935 19.0029ZM13.9063 18.4388L13.8571 18.3517L13.8567 18.3519L13.9063 18.4388ZM14.2698 18.0864L14.1831 18.0364L14.1827 18.0372L14.2698 18.0864ZM14.3957 17.0948L14.4957 17.0949L14.4962 16.8187L14.319 17.0306L14.3957 17.0948ZM14.2315 17.1765L14.2583 17.2729L14.2596 17.2725L14.2315 17.1765ZM13.943 17.2382L13.9581 17.3371L13.9593 17.3369L13.943 17.2382ZM13.6273 17.2824L13.6385 17.3818L13.6399 17.3816L13.6273 17.2824ZM13.3811 17.3118L13.3939 17.411L13.394 17.411L13.3811 17.3118ZM12.9534 17.4081L12.9845 17.5031L12.9852 17.5029L12.9534 17.4081ZM12.6349 17.6039L12.5616 17.5359L12.5615 17.536L12.6349 17.6039ZM12.7405 18.4195L12.6834 18.5016L12.6844 18.5023L12.7405 18.4195ZM13.2292 19.0014C13.0001 19.001 12.7951 18.9576 12.6126 18.8729L12.5284 19.0543C12.74 19.1525 12.9741 19.2009 13.2289 19.2014L13.2292 19.0014ZM12.6133 18.8731C12.4319 18.7875 12.2899 18.6656 12.1847 18.5072L12.0181 18.6179C12.1443 18.8079 12.315 18.9534 12.5278 19.054L12.6133 18.8731ZM12.1849 18.5076C12.0818 18.3509 12.028 18.1587 12.0284 17.9261L11.8284 17.9258C11.828 18.1903 11.8895 18.4225 12.0178 18.6175L12.1849 18.5076ZM12.0284 17.9261C12.0288 17.7197 12.0697 17.5628 12.1429 17.4479L11.9742 17.3405C11.8746 17.497 11.8288 17.6946 11.8284 17.9258L12.0284 17.9261ZM12.1432 17.4474C12.2203 17.3248 12.3228 17.2292 12.452 17.1597L12.3572 16.9835C12.1978 17.0693 12.0696 17.1888 11.9739 17.3409L12.1432 17.4474ZM12.452 17.1597C12.5874 17.0868 12.7377 17.0321 12.9034 16.9961L12.8609 16.8007C12.6785 16.8403 12.5104 16.9011 12.3572 16.9835L12.452 17.1597ZM12.9041 16.9959C13.0768 16.9571 13.2503 16.9265 13.4246 16.904L13.399 16.7056C13.2185 16.7289 13.039 16.7607 12.8602 16.8008L12.9041 16.9959ZM13.4244 16.904C13.6561 16.8746 13.8433 16.8526 13.9863 16.8381L13.9661 16.6391C13.8207 16.6539 13.6317 16.6761 13.3992 16.7056L13.4244 16.904ZM13.9873 16.838C14.1366 16.8213 14.2595 16.7924 14.3442 16.7439L14.2448 16.5703C14.1968 16.5978 14.1075 16.6233 13.9651 16.6392L13.9873 16.838ZM14.3433 16.7444C14.4501 16.6847 14.4965 16.5801 14.4967 16.4586L14.2967 16.4582C14.2966 16.5256 14.2749 16.5535 14.2457 16.5698L14.3433 16.7444ZM14.4967 16.4586L14.4968 16.4387L14.2968 16.4384L14.2967 16.4582L14.4967 16.4586ZM14.4968 16.4387C14.4972 16.1749 14.4249 15.9561 14.2676 15.7963L14.1251 15.9366C14.2358 16.0491 14.2972 16.2116 14.2968 16.4384L14.4968 16.4387ZM14.2681 15.7967C14.1102 15.6344 13.8784 15.5621 13.5928 15.5616L13.5925 15.7616C13.8472 15.762 14.0179 15.8263 14.1247 15.9362L14.2681 15.7967ZM13.5928 15.5616C13.2992 15.5611 13.0553 15.6249 12.8727 15.7652L12.9945 15.9238C13.1306 15.8193 13.326 15.7612 13.5925 15.7616L13.5928 15.5616ZM12.8727 15.7652C12.7045 15.8944 12.5802 16.037 12.5068 16.1944L12.688 16.2789C12.7443 16.1582 12.8442 16.0393 12.9945 15.9238L12.8727 15.7652ZM12.6312 16.1426L12.0747 15.9428L12.0071 16.131L12.5636 16.3308L12.6312 16.1426ZM12.1328 16.0764C12.2272 15.857 12.3507 15.6913 12.5009 15.5746L12.3782 15.4167C12.1965 15.5579 12.0542 15.7531 11.9491 15.9974L12.1328 16.0764ZM12.501 15.5745C12.6583 15.4519 12.8284 15.3674 13.0119 15.3199L12.9618 15.1263C12.7507 15.1809 12.556 15.2781 12.378 15.4168L12.501 15.5745ZM13.0125 15.3198C13.2036 15.2692 13.3905 15.2442 13.5735 15.2445L13.5738 15.0445C13.3723 15.0442 13.168 15.0717 12.9612 15.1265L13.0125 15.3198ZM13.5735 15.2445C13.6883 15.2447 13.8228 15.259 13.9775 15.2882L14.0147 15.0917C13.8514 15.0608 13.7042 15.0448 13.5738 15.0445L13.5735 15.2445ZM13.9787 15.2885C14.1266 15.3146 14.2699 15.3691 14.4091 15.4529L14.5123 15.2816C14.3535 15.1859 14.1871 15.1222 14.0136 15.0915L13.9787 15.2885ZM14.4095 15.4532C14.5423 15.5323 14.6556 15.6532 14.7477 15.8211L14.9231 15.725C14.8169 15.5313 14.6804 15.3817 14.5119 15.2813L14.4095 15.4532ZM14.7477 15.8211C14.8358 15.9818 14.8838 16.2052 14.8833 16.499L15.0833 16.4993C15.0838 16.1866 15.0332 15.9259 14.9231 15.725L14.7477 15.8211ZM14.8833 16.499L14.8792 19.0146L15.0792 19.0149L15.0833 16.4993L14.8833 16.499ZM14.9793 18.9148L14.3927 18.9138L14.3924 19.1138L14.979 19.1148L14.9793 18.9148ZM14.4925 19.014L14.4934 18.4969L14.2934 18.4966L14.2925 19.0136L14.4925 19.014ZM14.3935 18.3968L14.3637 18.3967L14.3634 18.5967L14.3932 18.5968L14.3935 18.3968ZM14.2735 18.4533C14.2399 18.5229 14.1814 18.6025 14.093 18.6922L14.2355 18.8326C14.333 18.7336 14.4074 18.6361 14.4536 18.5401L14.2735 18.4533ZM14.093 18.6922C14.0113 18.7751 13.8995 18.8487 13.7541 18.9109L13.8328 19.0948C13.9959 19.025 14.1313 18.9382 14.2355 18.8326L14.093 18.6922ZM13.7541 18.9109C13.6157 18.9702 13.4418 19.0017 13.2292 19.0014L13.2289 19.2014C13.4603 19.2017 13.6628 19.1676 13.8328 19.0948L13.7541 18.9109ZM13.3192 18.6745C13.5641 18.6749 13.7779 18.6272 13.9558 18.5256L13.8567 18.3519C13.7161 18.4322 13.5387 18.4749 13.3196 18.4745L13.3192 18.6745ZM13.9554 18.5258C14.1303 18.4271 14.2654 18.2973 14.3568 18.1356L14.1827 18.0372C14.1112 18.1636 14.004 18.2687 13.8571 18.3517L13.9554 18.5258ZM14.3564 18.1364C14.4478 17.9779 14.4945 17.8092 14.4948 17.6319L14.2948 17.6315C14.2946 17.7723 14.2579 17.9068 14.1832 18.0364L14.3564 18.1364ZM14.4948 17.6319L14.4957 17.0949L14.2957 17.0946L14.2948 17.6315L14.4948 17.6319ZM14.319 17.0306C14.319 17.0306 14.3127 17.0374 14.2914 17.048C14.2711 17.0581 14.2423 17.0692 14.2034 17.0805L14.2596 17.2725C14.3053 17.2591 14.3461 17.2442 14.3805 17.2271C14.4139 17.2104 14.4475 17.1887 14.4724 17.1589L14.319 17.0306ZM14.2047 17.0802C14.1261 17.1021 14.0336 17.1219 13.9268 17.1395L13.9593 17.3369C14.0713 17.3184 14.1711 17.2971 14.2583 17.2729L14.2047 17.0802ZM13.928 17.1393C13.821 17.1556 13.7166 17.1702 13.6146 17.1832L13.6399 17.3816C13.7435 17.3684 13.8496 17.3536 13.9581 17.3371L13.928 17.1393ZM13.616 17.1831C13.5147 17.1945 13.432 17.2044 13.3682 17.2127L13.394 17.411C13.4562 17.4029 13.5377 17.3932 13.6385 17.3818L13.616 17.1831ZM13.3684 17.2127C13.21 17.233 13.061 17.2665 12.9216 17.3133L12.9852 17.5029C13.1111 17.4606 13.2473 17.4299 13.3939 17.411L13.3684 17.2127ZM12.9223 17.313C12.7777 17.3604 12.6561 17.434 12.5616 17.5359L12.7082 17.6719C12.7764 17.5985 12.8672 17.5415 12.9845 17.5031L12.9223 17.313ZM12.5615 17.536C12.4605 17.6451 12.4153 17.7894 12.415 17.9566L12.615 17.9569C12.6152 17.8258 12.6499 17.7349 12.7083 17.6719L12.5615 17.536ZM12.415 17.9566C12.4146 18.1889 12.5025 18.3759 12.6834 18.5016L12.7975 18.3373C12.6772 18.2537 12.6147 18.1322 12.615 17.9569L12.415 17.9566ZM12.6844 18.5023C12.8572 18.6191 13.071 18.6741 13.3192 18.6745L13.3196 18.4745C13.1004 18.4742 12.9283 18.4258 12.7965 18.3366L12.6844 18.5023ZM16.0499 19.0165L15.9499 19.0164L15.9498 19.1164L16.0498 19.1165L16.0499 19.0165ZM16.0562 15.1984L16.0564 15.0984L15.9564 15.0982L15.9562 15.1982L16.0562 15.1984ZM16.623 15.1993L16.723 15.1995L16.7232 15.0995L16.6232 15.0993L16.623 15.1993ZM16.622 15.7959L16.522 15.7957L16.5218 15.8957L16.6218 15.8959L16.622 15.7959ZM16.6717 15.796L16.6716 15.896L16.7399 15.8961L16.7648 15.8325L16.6717 15.796ZM17.0578 15.3218L17.1113 15.4063L17.1119 15.4059L17.0578 15.3218ZM18.3256 15.3239L18.269 15.4064L18.2699 15.407L18.3256 15.3239ZM18.72 15.7993L18.6292 15.8412L18.656 15.8992L18.7198 15.8993L18.72 15.7993ZM18.7598 15.7994L18.7596 15.8994L18.8217 15.8995L18.8493 15.844L18.7598 15.7994ZM19.2005 15.3303L19.2514 15.4164L19.252 15.4161L19.2005 15.3303ZM20.7415 15.477L20.6712 15.5482L20.6715 15.5484L20.7415 15.477ZM21.0613 19.0248L21.0611 19.1248L21.1611 19.125L21.1613 19.025L21.0613 19.0248ZM20.4746 19.0238L20.3746 19.0237L20.3745 19.1237L20.4745 19.1238L20.4746 19.0238ZM20.2487 15.864L20.1868 15.9426L20.1868 15.9426L20.2487 15.864ZM19.0802 15.9242L19.1538 15.992L19.1542 15.9916L19.0802 15.9242ZM18.8539 19.0212L18.8537 19.1212L18.9537 19.1213L18.9539 19.0213L18.8539 19.0212ZM18.2573 19.0202L18.1573 19.02L18.1571 19.12L18.2571 19.1202L18.2573 19.0202ZM18.0512 15.8803L17.9821 15.9525L17.9825 15.953L18.0512 15.8803ZM17.0794 15.7991L17.0273 15.7138L17.0268 15.7141L17.0794 15.7991ZM16.7606 16.1367L16.6736 16.0874L16.6734 16.0878L16.7606 16.1367ZM16.6366 19.0175L16.6364 19.1175L16.7364 19.1177L16.7366 19.0177L16.6366 19.0175ZM16.1499 19.0167L16.1562 15.1985L15.9562 15.1982L15.9499 19.0164L16.1499 19.0167ZM16.0561 15.2984L16.6228 15.2993L16.6232 15.0993L16.0564 15.0984L16.0561 15.2984ZM16.523 15.1991L16.522 15.7957L16.722 15.796L16.723 15.1995L16.523 15.1991ZM16.6218 15.8959L16.6716 15.896L16.6719 15.696L16.6222 15.6959L16.6218 15.8959ZM16.7648 15.8325C16.8373 15.6477 16.9525 15.5068 17.1113 15.4063L17.0043 15.2373C16.8081 15.3616 16.6659 15.5368 16.5786 15.7595L16.7648 15.8325ZM17.1119 15.4059C17.2705 15.304 17.4639 15.251 17.6968 15.2513L17.6971 15.0513C17.4328 15.0509 17.2001 15.1115 17.0037 15.2377L17.1119 15.4059ZM17.6968 15.2513C17.9334 15.2517 18.1221 15.3056 18.269 15.4064L18.3821 15.2414C18.1947 15.1129 17.9642 15.0518 17.6971 15.0513L17.6968 15.2513ZM18.2699 15.407C18.4219 15.5087 18.542 15.6521 18.6292 15.8412L18.8108 15.7574C18.7098 15.5386 18.5669 15.3651 18.3812 15.2408L18.2699 15.407ZM18.7198 15.8993L18.7596 15.8994L18.76 15.6994L18.7202 15.6993L18.7198 15.8993ZM18.8493 15.844C18.9385 15.6648 19.0717 15.5226 19.2514 15.4164L19.1497 15.2442C18.9379 15.3694 18.7773 15.5399 18.6703 15.7548L18.8493 15.844ZM19.252 15.4161C19.4293 15.3098 19.6453 15.2546 19.9042 15.255L19.9045 15.055C19.6165 15.0545 19.3633 15.1162 19.1491 15.2445L19.252 15.4161ZM19.9042 15.255C20.2227 15.2555 20.4755 15.3548 20.6712 15.5482L20.8118 15.4059C20.574 15.171 20.2687 15.0556 19.9045 15.055L19.9042 15.255ZM20.6715 15.5484C20.8614 15.7346 20.9662 16.0342 20.9655 16.4692L21.1655 16.4696C21.1663 16.0064 21.055 15.6444 20.8115 15.4056L20.6715 15.5484ZM20.9655 16.4692L20.9613 19.0246L21.1613 19.025L21.1655 16.4696L20.9655 16.4692ZM21.0615 18.9248L20.4748 18.9238L20.4745 19.1238L21.0611 19.1248L21.0615 18.9248ZM20.5746 19.024L20.5789 16.4686L20.3789 16.4683L20.3746 19.0237L20.5746 19.024ZM20.5789 16.4686C20.5793 16.1702 20.4978 15.9329 20.3105 15.7854L20.1868 15.9426C20.3074 16.0375 20.3793 16.2032 20.3789 16.4683L20.5789 16.4686ZM20.3105 15.7854C20.1378 15.6494 19.9344 15.582 19.7048 15.5816L19.7044 15.7816C19.8924 15.782 20.0517 15.8361 20.1868 15.9426L20.3105 15.7854ZM19.7048 15.5816C19.4149 15.5812 19.1772 15.6693 19.0063 15.8569L19.1542 15.9916C19.2788 15.8548 19.4573 15.7812 19.7044 15.7816L19.7048 15.5816ZM19.0067 15.8565C18.8397 16.0379 18.7584 16.2668 18.758 16.5352L18.958 16.5355C18.9584 16.3101 19.0253 16.1316 19.1538 15.992L19.0067 15.8565ZM18.758 16.5352L18.7539 19.021L18.9539 19.0213L18.958 16.5355L18.758 16.5352ZM18.8541 18.9212L18.2575 18.9202L18.2571 19.1202L18.8537 19.1212L18.8541 18.9212ZM18.3573 19.0203L18.3616 16.4053L18.1616 16.405L18.1573 19.02L18.3573 19.0203ZM18.3616 16.4053C18.362 16.1643 18.2831 15.9617 18.1199 15.8076L17.9825 15.953C18.1006 16.0644 18.1619 16.2117 18.1616 16.405L18.3616 16.4053ZM18.1203 15.808C17.9585 15.6532 17.7511 15.5784 17.5073 15.578L17.507 15.778C17.7073 15.7784 17.8627 15.8384 17.9821 15.9525L18.1203 15.808ZM17.5073 15.578C17.336 15.5777 17.1754 15.6234 17.0273 15.7138L17.1315 15.8845C17.2488 15.8129 17.3733 15.7778 17.507 15.778L17.5073 15.578ZM17.0268 15.7141C16.8804 15.8045 16.7627 15.9299 16.6736 16.0874L16.8477 16.1859C16.9215 16.0554 17.0163 15.9557 17.132 15.8842L17.0268 15.7141ZM16.6734 16.0878C16.5841 16.2471 16.5408 16.4292 16.5405 16.631L16.7405 16.6313C16.7408 16.4586 16.7776 16.311 16.8479 16.1855L16.6734 16.0878ZM16.5405 16.631L16.5366 19.0173L16.7366 19.0177L16.7405 16.6313L16.5405 16.631ZM16.6367 18.9175L16.0501 18.9165L16.0498 19.1165L16.6364 19.1175L16.6367 18.9175ZM22.783 18.8636L22.7302 18.9485L22.7308 18.9489L22.783 18.8636ZM22.1701 18.1765L22.08 18.2198L22.0803 18.2204L22.1701 18.1765ZM22.1735 16.1133L22.0835 16.0698L22.0834 16.07L22.1735 16.1133ZM22.7762 15.4133L22.8307 15.4971L22.8308 15.4971L22.7762 15.4133ZM24.2704 15.2616L24.303 15.1671L24.303 15.1671L24.2704 15.2616ZM24.7994 15.5856L24.7309 15.6585L24.7313 15.6589L24.7994 15.5856ZM25.1787 16.1729L25.272 16.1369L25.272 16.1369L25.1787 16.1729ZM25.3185 17.3216L25.3184 17.4216L25.4184 17.4218L25.4185 17.3218L25.3185 17.3216ZM22.3754 17.3167L22.2754 17.3166L22.2752 17.4166L22.3752 17.4167L22.3754 17.3167ZM22.3762 16.8096L22.3764 16.7096L22.2764 16.7095L22.2762 16.8095L22.3762 16.8096ZM24.7228 16.8135L24.7226 16.9135L24.8226 16.9137L24.8228 16.8137L24.7228 16.8135ZM24.5945 16.2366L24.505 16.2812L24.5053 16.2819L24.5945 16.2366ZM24.2322 15.8358L24.1789 15.9204L24.1793 15.9206L24.2322 15.8358ZM23.0738 15.8612L23.1297 15.9441L23.1299 15.944L23.0738 15.8612ZM22.6828 16.308L22.5933 16.2635L22.5933 16.2635L22.6828 16.308ZM22.6925 17.971L22.6028 18.0153L22.6032 18.0162L22.6925 17.971ZM23.1118 18.4266L23.0613 18.5129L23.0619 18.5133L23.1118 18.4266ZM24.1532 18.5178L24.1858 18.6124L24.1865 18.6121L24.1532 18.5178ZM24.4792 18.3195L24.5485 18.3916L24.5491 18.391L24.4792 18.3195ZM24.691 17.9867L24.7182 17.8905L24.6298 17.8656L24.5974 17.9515L24.691 17.9867ZM25.2575 18.1468L25.353 18.1766L25.3836 18.0785L25.2847 18.0505L25.2575 18.1468ZM24.9559 18.6534L25.0273 18.7234L25.0277 18.723L24.9559 18.6534ZM24.4333 18.9906L24.469 19.084L24.4697 19.0837L24.4333 18.9906ZM23.7348 19.0088C23.3819 19.0082 23.0834 18.9299 22.8351 18.7782L22.7308 18.9489C23.0156 19.1229 23.3515 19.2081 23.7345 19.2088L23.7348 19.0088ZM22.8357 18.7786C22.5876 18.6245 22.3958 18.4101 22.2599 18.1325L22.0803 18.2204C22.2318 18.53 22.4486 18.7736 22.7302 18.9485L22.8357 18.7786ZM22.2602 18.1331C22.1259 17.8539 22.0574 17.5261 22.058 17.1472L21.858 17.1468C21.8574 17.5501 21.9303 17.9087 22.08 18.2198L22.2602 18.1331ZM22.058 17.1472C22.0587 16.7683 22.1282 16.4389 22.2637 16.1565L22.0834 16.07C21.9328 16.3838 21.8587 16.7435 21.858 17.1468L22.058 17.1472ZM22.2636 16.1567C22.401 15.872 22.5902 15.6533 22.8307 15.4971L22.7218 15.3294C22.448 15.5072 22.2354 15.7551 22.0835 16.0698L22.2636 16.1567ZM22.8308 15.4971C23.0715 15.3403 23.3537 15.2607 23.6813 15.2612L23.6816 15.0612C23.3198 15.0606 22.9986 15.1491 22.7216 15.3295L22.8308 15.4971ZM23.6813 15.2612C23.8688 15.2615 24.0542 15.293 24.2379 15.3562L24.303 15.1671C24.0991 15.097 23.8918 15.0616 23.6816 15.0612L23.6813 15.2612ZM24.2379 15.3562C24.4175 15.4179 24.5817 15.5182 24.7309 15.6585L24.8679 15.5128C24.6994 15.3543 24.511 15.2386 24.303 15.1671L24.2379 15.3562ZM24.7313 15.6589C24.877 15.7944 24.9958 15.9765 25.0855 16.2089L25.272 16.1369C25.1736 15.8819 25.0395 15.6724 24.8675 15.5124L24.7313 15.6589ZM25.0855 16.2089C25.1738 16.4378 25.2195 16.7247 25.219 17.0728L25.419 17.0732C25.4196 16.7087 25.3718 16.3956 25.272 16.1369L25.0855 16.2089ZM25.219 17.0728L25.2185 17.3214L25.4185 17.3218L25.419 17.0732L25.219 17.0728ZM25.3187 17.2216L22.3755 17.2167L22.3752 17.4167L25.3184 17.4216L25.3187 17.2216ZM22.4754 17.3169L22.4762 16.8098L22.2762 16.8095L22.2754 17.3166L22.4754 17.3169ZM22.376 16.9096L24.7226 16.9135L24.723 16.7135L22.3764 16.7096L22.376 16.9096ZM24.8228 16.8137C24.8232 16.5846 24.7776 16.3764 24.6836 16.1913L24.5053 16.2819C24.5831 16.4352 24.6231 16.6115 24.6228 16.8133L24.8228 16.8137ZM24.684 16.192C24.5917 16.0066 24.4584 15.8589 24.2851 15.7509L24.1793 15.9206C24.3206 16.0087 24.4288 16.1282 24.505 16.2812L24.684 16.192ZM24.2855 15.7512C24.1117 15.6416 23.9088 15.5886 23.6808 15.5882L23.6804 15.7882C23.8767 15.7885 24.0415 15.8338 24.1789 15.9204L24.2855 15.7512ZM23.6808 15.5882C23.4298 15.5878 23.2073 15.65 23.0177 15.7784L23.1299 15.944C23.282 15.841 23.4641 15.7878 23.6804 15.7882L23.6808 15.5882ZM23.0179 15.7783C22.8342 15.9021 22.6924 16.0643 22.5933 16.2635L22.7723 16.3526C22.8561 16.1841 22.9749 16.0485 23.1297 15.9441L23.0179 15.7783ZM22.5933 16.2635C22.4948 16.4614 22.4455 16.6738 22.4451 16.8992L22.6451 16.8996C22.6454 16.7041 22.6879 16.5222 22.7723 16.3526L22.5933 16.2635ZM22.4451 16.8992L22.4445 17.2373L22.6445 17.2376L22.6451 16.8996L22.4451 16.8992ZM22.4445 17.2373C22.444 17.5368 22.4952 17.7974 22.6028 18.0153L22.7821 17.9267C22.6915 17.7433 22.6441 17.5149 22.6445 17.2376L22.4445 17.2373ZM22.6032 18.0162C22.712 18.231 22.8646 18.3978 23.0613 18.5129L23.1623 18.3403C23.0014 18.2461 22.8745 18.1091 22.7817 17.9259L22.6032 18.0162ZM23.0619 18.5133C23.258 18.6262 23.4835 18.6813 23.7353 18.6818L23.7357 18.4818C23.5135 18.4814 23.3233 18.4331 23.1617 18.34L23.0619 18.5133ZM23.7353 18.6818C23.8987 18.682 24.0493 18.6594 24.1858 18.6124L24.1206 18.4233C24.0084 18.462 23.8805 18.482 23.7357 18.4818L23.7353 18.6818ZM24.1865 18.6121C24.3252 18.5631 24.4463 18.4897 24.5485 18.3916L24.4099 18.2474C24.3295 18.3246 24.2333 18.3835 24.1199 18.4235L24.1865 18.6121ZM24.5491 18.391C24.6519 18.2904 24.7301 18.1667 24.7846 18.022L24.5974 17.9515C24.5521 18.0718 24.489 18.1699 24.4092 18.248L24.5491 18.391ZM24.6638 18.083L25.2303 18.243L25.2847 18.0505L24.7182 17.8905L24.6638 18.083ZM25.1621 18.117C25.1068 18.2941 25.0144 18.4493 24.8841 18.5838L25.0277 18.723C25.1796 18.5662 25.2883 18.3838 25.353 18.1766L25.1621 18.117ZM24.8845 18.5834C24.7543 18.7162 24.5925 18.8212 24.397 18.8974L24.4697 19.0837C24.6888 18.9983 24.8753 18.8785 25.0273 18.7234L24.8845 18.5834ZM24.3976 18.8972C24.2035 18.9713 23.983 19.0092 23.7348 19.0088L23.7345 19.2088C24.0032 19.2092 24.2486 19.1682 24.469 19.084L24.3976 18.8972ZM10.8915 23.1898L10.7922 23.2014L10.8025 23.2897L10.8914 23.2898L10.8915 23.1898ZM10.5296 22.6026L10.4746 22.6861L10.4746 22.6861L10.5296 22.6026ZM9.15759 22.5009L9.11813 22.409L9.1178 22.4092L9.15759 22.5009ZM8.76434 22.801L8.68406 22.7414L8.68356 22.7421L8.76434 22.801ZM8.72078 23.5865L8.63725 23.6415L8.63837 23.6431L8.72078 23.5865ZM8.97394 23.828L8.92055 23.9126L8.92154 23.9132L8.97394 23.828ZM9.29683 23.9852L9.26217 24.079L9.26339 24.0794L9.29683 23.9852ZM9.60739 24.0826L9.63355 23.9861L9.633 23.9859L9.60739 24.0826ZM10.1242 24.2227L10.0981 24.3192L10.0987 24.3194L10.1242 24.2227ZM10.5664 24.3676L10.531 24.4611L10.5313 24.4612L10.5664 24.3676ZM11.0358 24.6194L10.9778 24.7008L10.9788 24.7015L11.0358 24.6194ZM11.408 25.0227L11.494 24.9717L11.494 24.9717L11.408 25.0227ZM11.3362 26.3724L11.2524 26.3178L11.2522 26.3183L11.3362 26.3724ZM10.7089 26.9008L10.6661 26.8105L10.6659 26.8106L10.7089 26.9008ZM8.765 26.9175L8.72429 27.0089L8.7245 27.009L8.765 26.9175ZM8.1394 26.4243L8.05801 26.4824L8.05832 26.4828L8.1394 26.4243ZM7.88457 25.6906L7.88473 25.5906L7.77734 25.5904L7.78481 25.6975L7.88457 25.6906ZM8.52093 25.6916L8.62058 25.6832L8.61285 25.5918L8.5211 25.5916L8.52093 25.6916ZM8.71404 26.1692L8.6394 26.2358L8.64033 26.2368L8.71404 26.1692ZM9.14611 26.4483L9.11271 26.5426L9.11379 26.543L9.14611 26.4483ZM10.3468 26.4255L10.3843 26.5181L10.385 26.5179L10.3468 26.4255ZM10.7923 26.103L10.8704 26.1654L10.8708 26.1649L10.7923 26.103ZM10.8161 25.2032L10.8909 25.1368L10.8909 25.1368L10.8161 25.2032ZM10.4437 24.9441L10.404 25.0359L10.404 25.0359L10.4437 24.9441ZM9.94433 24.7693L9.9167 24.8654L9.91741 24.8656L9.94433 24.7693ZM9.31821 24.5892L9.29042 24.6853L9.29058 24.6853L9.31821 24.5892ZM8.37441 24.098L8.30681 24.1717L8.30681 24.1717L8.37441 24.098ZM8.26018 22.5193L8.17946 22.4603L8.17938 22.4604L8.26018 22.5193ZM8.88742 22.0232L8.92826 22.1145L8.92853 22.1143L8.88742 22.0232ZM10.6449 22.0236L10.6029 22.1143L10.6034 22.1146L10.6449 22.0236ZM11.2506 22.5019L11.1701 22.5611L11.1704 22.5615L11.2506 22.5019ZM11.4881 23.1908L11.488 23.2908L11.5912 23.291L11.5881 23.1878L11.4881 23.1908ZM10.9909 23.1782C10.958 22.897 10.8211 22.6749 10.5846 22.5191L10.4746 22.6861C10.6618 22.8094 10.7662 22.9788 10.7922 23.2014L10.9909 23.1782ZM10.5846 22.5191C10.3532 22.3667 10.0731 22.293 9.74955 22.2925L9.74922 22.4925C10.0422 22.493 10.2822 22.5594 10.4746 22.6861L10.5846 22.5191ZM9.74955 22.2925C9.51353 22.2921 9.30228 22.3299 9.11813 22.409L9.19705 22.5928C9.35121 22.5266 9.53449 22.4922 9.74922 22.4925L9.74955 22.2925ZM9.1178 22.4092C8.93667 22.4877 8.79066 22.5979 8.68406 22.7414L8.84461 22.8607C8.92735 22.7493 9.04351 22.6594 9.19738 22.5926L9.1178 22.4092ZM8.68356 22.7421C8.5777 22.8871 8.52472 23.0528 8.52442 23.2357L8.72442 23.236C8.72465 23.0941 8.76494 22.9698 8.84511 22.86L8.68356 22.7421ZM8.52442 23.2357C8.52416 23.388 8.56038 23.5247 8.63727 23.6415L8.8043 23.5315C8.75225 23.4525 8.72422 23.3555 8.72442 23.236L8.52442 23.2357ZM8.63837 23.6431C8.71249 23.751 8.80691 23.8408 8.92055 23.9126L9.02732 23.7435C8.93569 23.6856 8.86134 23.6144 8.8032 23.5298L8.63837 23.6431ZM8.92154 23.9132C9.02977 23.9798 9.14334 24.035 9.26217 24.079L9.33149 23.8914C9.22508 23.852 9.12338 23.8025 9.02633 23.7428L8.92154 23.9132ZM9.26339 24.0794C9.37805 24.1201 9.48422 24.1534 9.58179 24.1793L9.633 23.9859C9.54173 23.9618 9.44086 23.9301 9.33027 23.8909L9.26339 24.0794ZM9.58124 24.1791L10.0981 24.3192L10.1504 24.1262L9.63355 23.9861L9.58124 24.1791ZM10.0987 24.3194C10.2271 24.3533 10.3711 24.4004 10.531 24.4611L10.6019 24.2741C10.4372 24.2116 10.2864 24.1621 10.1498 24.126L10.0987 24.3194ZM10.5313 24.4612C10.6867 24.5196 10.8355 24.5993 10.9778 24.7008L11.0939 24.538C10.9382 24.4269 10.7741 24.3387 10.6016 24.274L10.5313 24.4612ZM10.9788 24.7015C11.1172 24.7977 11.2316 24.9213 11.3221 25.0738L11.494 24.9717C11.3895 24.7957 11.2558 24.6505 11.0929 24.5373L10.9788 24.7015ZM11.3221 25.0738C11.4083 25.2191 11.4541 25.4018 11.4537 25.6269L11.6537 25.6272C11.6541 25.375 11.6028 25.1548 11.494 24.9717L11.3221 25.0738ZM11.4537 25.6269C11.4533 25.8834 11.386 26.1128 11.2524 26.3178L11.42 26.427C11.5755 26.1883 11.6532 25.9208 11.6537 25.6272L11.4537 25.6269ZM11.2522 26.3183C11.1208 26.5221 10.9272 26.6867 10.6661 26.8105L10.7517 26.9912C11.0413 26.854 11.2658 26.6664 11.4203 26.4266L11.2522 26.3183ZM10.6659 26.8106C10.4091 26.933 10.0923 26.9962 9.71196 26.9956L9.71163 27.1956C10.1135 27.1962 10.4615 27.1296 10.752 26.9911L10.6659 26.8106ZM9.71196 26.9956C9.35791 26.995 9.05666 26.9373 8.80551 26.8261L8.7245 27.009C9.00658 27.1339 9.33653 27.195 9.71163 27.1956L9.71196 26.9956ZM8.80572 26.8262C8.55496 26.7144 8.3611 26.5606 8.22048 26.3658L8.05832 26.4828C8.22192 26.7095 8.44514 26.8844 8.72429 27.0089L8.80572 26.8262ZM8.22078 26.3662C8.08189 26.1717 8.00257 25.9451 7.98433 25.6836L7.78481 25.6975C7.80542 25.9929 7.89599 26.2555 8.05801 26.4824L8.22078 26.3662ZM7.8844 25.7906L8.52077 25.7916L8.5211 25.5916L7.88473 25.5906L7.8844 25.7906ZM8.42129 25.7C8.4391 25.9107 8.51052 26.0912 8.6394 26.2358L8.78867 26.1027C8.6926 25.9949 8.63528 25.8571 8.62058 25.6832L8.42129 25.7ZM8.64033 26.2368C8.76653 26.3744 8.92485 26.476 9.11271 26.5426L9.1795 26.3541C9.01955 26.2974 8.88983 26.213 8.78774 26.1016L8.64033 26.2368ZM9.11379 26.543C9.30059 26.6068 9.50042 26.6384 9.71255 26.6388L9.71288 26.4388C9.52066 26.4384 9.34274 26.4098 9.17842 26.3537L9.11379 26.543ZM9.71255 26.6388C9.95871 26.6392 10.1832 26.5996 10.3843 26.5181L10.3092 26.3328C10.1356 26.4031 9.93737 26.4391 9.71288 26.4388L9.71255 26.6388ZM10.385 26.5179C10.5856 26.4348 10.7488 26.3179 10.8704 26.1654L10.7141 26.0407C10.6166 26.1629 10.4827 26.2609 10.3085 26.3331L10.385 26.5179ZM10.8708 26.1649C10.995 26.0074 11.0568 25.8231 11.0571 25.6163L10.8571 25.6159C10.8569 25.7803 10.8088 25.9206 10.7137 26.0411L10.8708 26.1649ZM11.0571 25.6163C11.0575 25.4276 11.0045 25.2648 10.8909 25.1368L10.7413 25.2696C10.8164 25.3541 10.8574 25.4665 10.8571 25.6159L11.0571 25.6163ZM10.8909 25.1368C10.7853 25.0179 10.6484 24.9236 10.4834 24.8523L10.404 25.0359C10.547 25.0977 10.6584 25.1761 10.7413 25.2696L10.8909 25.1368ZM10.4834 24.8523C10.3248 24.7838 10.154 24.724 9.97125 24.6729L9.91741 24.8656C10.0924 24.9145 10.2546 24.9713 10.404 25.0359L10.4834 24.8523ZM9.97196 24.6731L9.34584 24.4931L9.29058 24.6853L9.9167 24.8654L9.97196 24.6731ZM9.346 24.4932C8.95878 24.3812 8.65929 24.2236 8.44201 24.0243L8.30681 24.1717C8.55285 24.3974 8.88256 24.5673 9.29042 24.6853L9.346 24.4932ZM8.44201 24.0243C8.23306 23.8326 8.12725 23.5827 8.12778 23.2648L7.92778 23.2645C7.92717 23.6328 8.05245 23.9383 8.30681 24.1717L8.44201 24.0243ZM8.12778 23.2648C8.12821 22.999 8.20006 22.7715 8.34099 22.5782L8.17938 22.4604C8.01137 22.6908 7.92828 22.9603 7.92778 23.2645L8.12778 23.2648ZM8.34091 22.5783C8.48591 22.38 8.68071 22.2252 8.92826 22.1145L8.84659 21.9319C8.57008 22.0556 8.34672 22.2315 8.17946 22.4603L8.34091 22.5783ZM8.92853 22.1143C9.17774 22.002 9.45767 21.9451 9.77001 21.9457L9.77034 21.7457C9.43306 21.7451 9.12449 21.8066 8.84632 21.932L8.92853 22.1143ZM9.77001 21.9457C10.0861 21.9462 10.363 22.0033 10.6029 22.1143L10.6869 21.9329C10.4167 21.8078 10.1105 21.7462 9.77034 21.7457L9.77001 21.9457ZM10.6034 22.1146C10.8447 22.2247 11.0325 22.3739 11.1701 22.5611L11.3312 22.4426C11.1712 22.2249 10.9551 22.0553 10.6864 21.9326L10.6034 22.1146ZM11.1704 22.5615C11.3084 22.7472 11.3809 22.957 11.3882 23.1939L11.5881 23.1878C11.5796 22.9109 11.4938 22.6614 11.3309 22.4422L11.1704 22.5615ZM11.4883 23.0908L10.8917 23.0898L10.8914 23.2898L11.488 23.2908L11.4883 23.0908ZM13.0721 27.0116L13.072 27.1116L13.172 27.1118L13.1721 27.0118L13.0721 27.0116ZM12.4855 27.0107L12.3855 27.0105L12.3853 27.1105L12.4853 27.1107L12.4855 27.0107ZM12.4939 21.9198L12.494 21.8198L12.394 21.8196L12.3939 21.9196L12.4939 21.9198ZM13.0805 21.9207L13.1805 21.9209L13.1807 21.8209L13.0807 21.8207L13.0805 21.9207ZM13.0774 23.79L12.9774 23.7899L12.9773 23.8899L13.0773 23.89L13.0774 23.79ZM13.1271 23.7901L13.127 23.8901L13.1914 23.8902L13.2181 23.8316L13.1271 23.7901ZM13.5306 23.321L13.5849 23.405L13.5851 23.4049L13.5306 23.321ZM14.9351 23.3034L14.8879 23.3915L14.8885 23.3919L14.9351 23.3034ZM15.3892 23.7789L15.2999 23.8238L15.3003 23.8246L15.3892 23.7789ZM15.548 27.0157L15.5478 27.1157L15.6478 27.1159L15.648 27.0159L15.548 27.0157ZM14.9613 27.0147L14.8613 27.0146L14.8612 27.1146L14.9612 27.1147L14.9613 27.0147ZM14.7303 23.9245L14.6569 23.9925L14.6577 23.9933L14.7303 23.9245ZM13.5646 23.7933L13.5178 23.705L13.5174 23.7052L13.5646 23.7933ZM13.2061 24.1482L13.1191 24.099L13.1187 24.0997L13.2061 24.1482ZM12.9759 24.7146L12.9721 27.0115L13.1721 27.0118L13.1759 24.7149L12.9759 24.7146ZM13.0723 26.9116L12.4856 26.9107L12.4853 27.1107L13.072 27.1116L13.0723 26.9116ZM12.5855 27.0108L12.5939 21.9199L12.3939 21.9196L12.3855 27.0105L12.5855 27.0108ZM12.4937 22.0198L13.0803 22.0207L13.0807 21.8207L12.494 21.8198L12.4937 22.0198ZM12.9805 21.9206L12.9774 23.7899L13.1774 23.7902L13.1805 21.9209L12.9805 21.9206ZM13.0773 23.89L13.127 23.8901L13.1273 23.6901L13.0776 23.69L13.0773 23.89ZM13.2181 23.8316C13.3002 23.6517 13.422 23.5101 13.5849 23.405L13.4764 23.237C13.2809 23.3632 13.1338 23.5345 13.0362 23.7487L13.2181 23.8316ZM13.5851 23.4049C13.7444 23.3014 13.9637 23.2452 14.2516 23.2457L14.252 23.0457C13.9399 23.0452 13.6785 23.1058 13.4762 23.2371L13.5851 23.4049ZM14.2516 23.2457C14.4982 23.2461 14.7093 23.2958 14.8879 23.3915L14.9824 23.2153C14.7702 23.1015 14.5257 23.0461 14.252 23.0457L14.2516 23.2457ZM14.8885 23.3919C15.0638 23.4844 15.201 23.6268 15.2999 23.8238L15.4786 23.7341C15.3627 23.5031 15.1972 23.3286 14.9818 23.215L14.8885 23.3919ZM15.3003 23.8246C15.3998 24.0184 15.4525 24.2716 15.452 24.5894L15.652 24.5897C15.6525 24.2513 15.5967 23.964 15.4782 23.7333L15.3003 23.8246ZM15.452 24.5894L15.448 27.0155L15.648 27.0159L15.652 24.5897L15.452 24.5894ZM15.5481 26.9157L14.9615 26.9147L14.9612 27.1147L15.5478 27.1157L15.5481 26.9157ZM15.0613 27.0149L15.0653 24.6286L14.8653 24.6282L14.8613 27.0146L15.0613 27.0149ZM15.0653 24.6286C15.0658 24.3083 14.9828 24.0458 14.8029 23.8558L14.6577 23.9933C14.792 24.1352 14.8657 24.342 14.8653 24.6282L15.0653 24.6286ZM14.8036 23.8565C14.6253 23.6643 14.3803 23.5729 14.0821 23.5724L14.0817 23.7724C14.337 23.7728 14.5242 23.8495 14.657 23.9925L14.8036 23.8565ZM14.0821 23.5724C13.8753 23.572 13.6864 23.6155 13.5178 23.705L13.6115 23.8817C13.748 23.8092 13.904 23.7721 14.0817 23.7724L14.0821 23.5724ZM13.5174 23.7052C13.349 23.7955 13.216 23.9276 13.1191 24.099L13.2931 24.1975C13.3723 24.0575 13.4784 23.9531 13.6119 23.8815L13.5174 23.7052ZM13.1187 24.0997C13.0222 24.2733 12.9763 24.4797 12.9759 24.7146L13.1759 24.7149C13.1763 24.5057 13.2171 24.3344 13.2935 24.1968L13.1187 24.0997ZM17.2653 26.852L17.2116 26.9363L17.2118 26.9365L17.2653 26.852ZM16.6599 26.1624L16.57 26.2062L16.5702 26.2066L16.6599 26.1624ZM16.6633 24.0868L16.5737 24.0425L16.5735 24.0429L16.6633 24.0868ZM17.271 23.3967L17.2178 23.3121L17.2176 23.3122L17.271 23.3967ZM19.0831 23.3997L19.0294 23.4841L19.0297 23.4842L19.0831 23.3997ZM19.6885 24.0918L19.5985 24.1354L19.5987 24.1358L19.6885 24.0918ZM19.6851 26.1674L19.5955 26.123L19.5953 26.1234L19.6851 26.1674ZM19.0774 26.855L19.0242 26.7703L19.024 26.7705L19.0774 26.855ZM18.8197 26.3723L18.7577 26.2939L18.7577 26.2939L18.8197 26.3723ZM19.1959 25.8435L19.2896 25.8784L19.2896 25.8784L19.1959 25.8435ZM19.1983 24.4191L19.2922 24.3847L19.2922 24.3847L19.1983 24.4191ZM18.8238 23.884L18.8866 23.8062L18.8866 23.8062L18.8238 23.884ZM17.5312 23.8819L17.4687 23.8039L17.4687 23.8039L17.5312 23.8819ZM17.155 24.4157L17.0612 24.381L17.0612 24.381L17.155 24.4157ZM17.1526 25.8401L17.0588 25.8747L17.0588 25.8747L17.1526 25.8401ZM17.5271 26.3702L17.5894 26.292L17.5894 26.292L17.5271 26.3702ZM18.1724 26.9996C17.8442 26.999 17.5609 26.9207 17.3188 26.7675L17.2118 26.9365C17.4896 27.1123 17.8108 27.199 18.172 27.1996L18.1724 26.9996ZM17.319 26.7677C17.0774 26.6137 16.8875 26.3983 16.7496 26.1183L16.5702 26.2066C16.723 26.517 16.9367 26.7613 17.2116 26.9363L17.319 26.7677ZM16.7498 26.1187C16.614 25.8396 16.5447 25.5104 16.5453 25.1282L16.3453 25.1278C16.3447 25.5344 16.4184 25.8948 16.57 26.2062L16.7498 26.1187ZM16.5453 25.1282C16.546 24.7425 16.6164 24.4109 16.7532 24.1307L16.5735 24.0429C16.4209 24.3555 16.346 24.718 16.3453 25.1278L16.5453 25.1282ZM16.753 24.1311C16.8918 23.8498 17.0824 23.6343 17.3244 23.4813L17.2176 23.3122C16.942 23.4865 16.7275 23.731 16.5737 24.0425L16.753 24.1311ZM17.3242 23.4814C17.5668 23.329 17.8504 23.2516 18.1786 23.2521L18.1789 23.0522C17.8177 23.0516 17.4961 23.1372 17.2178 23.3121L17.3242 23.4814ZM18.1786 23.2521C18.5067 23.2527 18.7891 23.331 19.0294 23.4841L19.1369 23.3154C18.8607 23.1395 18.5401 23.0527 18.1789 23.0522L18.1786 23.2521ZM19.0297 23.4842C19.2727 23.638 19.4624 23.854 19.5985 24.1354L19.7785 24.0482C19.6274 23.7358 19.4134 23.4904 19.1366 23.3152L19.0297 23.4842ZM19.5987 24.1358C19.7361 24.4164 19.8062 24.748 19.8056 25.1335L20.0056 25.1339C20.0062 24.7239 19.9317 24.3609 19.7784 24.0478L19.5987 24.1358ZM19.8056 25.1335C19.8049 25.5156 19.7338 25.8445 19.5955 26.123L19.7747 26.2119C19.9291 25.9009 20.0049 25.5406 20.0056 25.1339L19.8056 25.1335ZM19.5953 26.1234C19.4583 26.4026 19.2679 26.6172 19.0242 26.7703L19.1306 26.9397C19.4079 26.7655 19.6226 26.5217 19.7749 26.2115L19.5953 26.1234ZM19.024 26.7705C18.7832 26.9227 18.5006 27.0001 18.1724 26.9996L18.172 27.1996C18.5333 27.2002 18.8541 27.1145 19.1309 26.9395L19.024 26.7705ZM18.1729 26.6726C18.4524 26.6731 18.6913 26.6015 18.8818 26.4507L18.7577 26.2939C18.6096 26.411 18.4175 26.473 18.1732 26.4726L18.1729 26.6726ZM18.8818 26.4507C19.0665 26.3045 19.2022 26.1127 19.2896 25.8784L19.1023 25.8085C19.0265 26.0115 18.9114 26.1722 18.7577 26.2939L18.8818 26.4507ZM19.2896 25.8784C19.3757 25.6477 19.4185 25.3989 19.4189 25.1329L19.2189 25.1326C19.2185 25.377 19.1793 25.602 19.1023 25.8085L19.2896 25.8784ZM19.4189 25.1329C19.4194 24.8669 19.3774 24.6172 19.2922 24.3847L19.1044 24.4535C19.1808 24.6621 19.2193 24.8881 19.2189 25.1326L19.4189 25.1329ZM19.2922 24.3847C19.2056 24.1486 19.0707 23.9547 18.8866 23.8062L18.761 23.9619C18.9146 24.0857 19.0293 24.2485 19.1044 24.4535L19.2922 24.3847ZM18.8866 23.8062C18.6966 23.6529 18.4578 23.5796 18.178 23.5791L18.1777 23.7791C18.4216 23.7795 18.6134 23.8428 18.761 23.9619L18.8866 23.8062ZM18.178 23.5791C17.8983 23.5787 17.6592 23.6512 17.4687 23.8039L17.5937 23.9599C17.7417 23.8414 17.9337 23.7787 18.1777 23.7791L18.178 23.5791ZM17.4687 23.8039C17.2841 23.9518 17.1485 24.1452 17.0612 24.381L17.2488 24.4505C17.3246 24.2457 17.4398 24.0833 17.5937 23.9599L17.4687 23.8039ZM17.0612 24.381C16.9752 24.6133 16.9324 24.8628 16.932 25.1288L17.132 25.1291C17.1324 24.8847 17.1716 24.6587 17.2488 24.4505L17.0612 24.381ZM16.932 25.1288C16.9316 25.3948 16.9735 25.6437 17.0588 25.8747L17.2464 25.8054C17.1701 25.5987 17.1316 25.3736 17.132 25.1291L16.932 25.1288ZM17.0588 25.8747C17.1455 26.1093 17.2805 26.3016 17.4648 26.4484L17.5894 26.292C17.436 26.1698 17.3215 26.0086 17.2464 25.8054L17.0588 25.8747ZM17.4648 26.4484C17.6548 26.5998 17.8935 26.6721 18.1729 26.6726L18.1732 26.4726C17.929 26.4722 17.737 26.4096 17.5894 26.292L17.4648 26.4484ZM20.7956 28.4562L20.6956 28.456L20.6954 28.556L20.7954 28.5562L20.7956 28.4562ZM20.8043 23.2062L20.8044 23.1062L20.7044 23.106L20.7043 23.206L20.8043 23.2062ZM21.371 23.2071L21.471 23.2073L21.4712 23.1073L21.3712 23.1071L21.371 23.2071ZM21.37 23.8137L21.27 23.8135L21.2699 23.9135L21.3699 23.9137L21.37 23.8137ZM21.4396 23.8138L21.4395 23.9138L21.4937 23.9139L21.5234 23.8684L21.4396 23.8138ZM21.619 23.5605L21.539 23.5006L21.5388 23.5008L21.619 23.5605ZM21.9526 23.2827L22.0015 23.3699L22.0018 23.3697L21.9526 23.2827ZM23.3941 23.4019L23.4491 23.3183L23.4491 23.3183L23.3941 23.4019ZM23.9672 24.0864L24.0579 24.0443L24.0579 24.0443L23.9672 24.0864ZM23.9638 26.1819L24.0543 26.2243L24.0544 26.2242L23.9638 26.1819ZM23.3909 26.8671L23.4458 26.9506L23.4462 26.9504L23.3909 26.8671ZM21.9589 26.984L21.9098 27.0711L21.9105 27.0716L21.9589 26.984ZM21.6188 26.7026L21.5387 26.7624L21.5392 26.763L21.6188 26.7026ZM21.4353 26.4388L21.5204 26.3863L21.4912 26.3389L21.4355 26.3388L21.4353 26.4388ZM21.3856 26.4387L21.3857 26.3387L21.2857 26.3385L21.2856 26.4385L21.3856 26.4387ZM21.3822 28.4572L21.3821 28.5572L21.4821 28.5573L21.4822 28.4573L21.3822 28.4572ZM21.5033 25.8796L21.4099 25.9152L21.41 25.9155L21.5033 25.8796ZM21.8729 26.3948L21.812 26.4741L21.8125 26.4745L21.8729 26.3948ZM23.0835 26.3868L23.1452 26.4655L23.1453 26.4654L23.0835 26.3868ZM23.4572 25.8604L23.3638 25.8247L23.3637 25.8251L23.4572 25.8604ZM23.4621 24.3938L23.3684 24.4287L23.3687 24.4296L23.4621 24.3938ZM23.0926 23.8787L23.031 23.9575L23.0319 23.9582L23.0926 23.8787ZM21.8721 23.8667L21.9311 23.9474L21.9317 23.947L21.8721 23.8667ZM21.5033 24.3682L21.5965 24.4045L21.5966 24.4043L21.5033 24.3682ZM20.8956 28.4564L20.9043 23.2064L20.7043 23.206L20.6956 28.456L20.8956 28.4564ZM20.8041 23.3062L21.3709 23.3071L21.3712 23.1071L20.8044 23.1062L20.8041 23.3062ZM21.271 23.207L21.27 23.8135L21.47 23.8138L21.471 23.2073L21.271 23.207ZM21.3699 23.9137L21.4395 23.9138L21.4398 23.7138L21.3702 23.7137L21.3699 23.9137ZM21.5234 23.8684C21.565 23.8047 21.6234 23.7221 21.6992 23.6202L21.5388 23.5008C21.4618 23.6042 21.4007 23.6905 21.3559 23.7591L21.5234 23.8684ZM21.6991 23.6205C21.7668 23.5299 21.8662 23.4458 22.0015 23.3699L21.9036 23.1955C21.7503 23.2815 21.6273 23.3826 21.539 23.5006L21.6991 23.6205ZM22.0018 23.3697C22.1272 23.2987 22.3052 23.259 22.5442 23.2594L22.5446 23.0594C22.2864 23.0589 22.0699 23.1013 21.9033 23.1956L22.0018 23.3697ZM22.5442 23.2594C22.8482 23.2599 23.112 23.336 23.3392 23.4854L23.4491 23.3183C23.1863 23.1454 22.8836 23.0599 22.5446 23.0594L22.5442 23.2594ZM23.3392 23.4854C23.567 23.6353 23.7464 23.8483 23.8765 24.1285L24.0579 24.0443C23.9139 23.7341 23.7113 23.4908 23.4491 23.3183L23.3392 23.4854ZM23.8765 24.1285C24.0062 24.4078 24.0725 24.7409 24.0718 25.1306L24.2718 25.131C24.2725 24.7186 24.2024 24.3555 24.0579 24.0443L23.8765 24.1285ZM24.0718 25.1306C24.0712 25.5238 24.0037 25.8592 23.8731 26.1397L24.0544 26.2242C24.1999 25.9118 24.2711 25.5465 24.2718 25.131L24.0718 25.1306ZM23.8732 26.1395C23.7421 26.4196 23.5625 26.633 23.3356 26.7838L23.4462 26.9504C23.707 26.7771 23.9094 26.5338 24.0543 26.2243L23.8732 26.1395ZM23.336 26.7835C23.1099 26.9321 22.8484 27.0073 22.548 27.0068L22.5477 27.2068C22.8836 27.2074 23.1841 27.1227 23.4458 26.9506L23.336 26.7835ZM22.548 27.0068C22.3124 27.0064 22.1346 26.9669 22.0073 26.8965L21.9105 27.0716C22.0779 27.164 22.2927 27.2064 22.5477 27.2068L22.548 27.0068ZM22.008 26.8969C21.8693 26.8187 21.7676 26.7331 21.6984 26.6421L21.5392 26.763C21.6288 26.8811 21.7538 26.9832 21.9098 27.0711L22.008 26.8969ZM21.6989 26.6427C21.6204 26.5376 21.5612 26.4524 21.5204 26.3863L21.3502 26.4913C21.3954 26.5645 21.4585 26.6551 21.5387 26.7624L21.6989 26.6427ZM21.4355 26.3388L21.3857 26.3387L21.3854 26.5387L21.4351 26.5388L21.4355 26.3388ZM21.2856 26.4385L21.2822 28.457L21.4822 28.4573L21.4856 26.4389L21.2856 26.4385ZM21.3824 28.3572L20.7958 28.3562L20.7954 28.5562L21.3821 28.5572L21.3824 28.3572ZM21.2778 25.1161C21.2773 25.414 21.3205 25.681 21.4099 25.9152L21.5968 25.8439C21.5178 25.637 21.4774 25.3951 21.4778 25.1164L21.2778 25.1161ZM21.41 25.9155C21.4998 26.149 21.6331 26.3367 21.812 26.4741L21.9338 26.3154C21.7882 26.2037 21.6752 26.048 21.5967 25.8437L21.41 25.9155ZM21.8125 26.4745C21.9946 26.6125 22.2155 26.6793 22.469 26.6797L22.4693 26.4797C22.2522 26.4793 22.0755 26.4228 21.9333 26.315L21.8125 26.4745ZM22.469 26.6797C22.7326 26.6801 22.9603 26.6106 23.1452 26.4655L23.0217 26.3082C22.878 26.421 22.6962 26.4801 22.4693 26.4797L22.469 26.6797ZM23.1453 26.4654C23.3272 26.3222 23.4618 26.1311 23.5507 25.8958L23.3637 25.8251C23.2861 26.0303 23.1716 26.1901 23.0216 26.3082L23.1453 26.4654ZM23.5506 25.8962C23.6404 25.6614 23.6847 25.4023 23.6852 25.12L23.4852 25.1197C23.4848 25.3811 23.4438 25.6156 23.3638 25.8247L23.5506 25.8962ZM23.6852 25.12C23.6857 24.8413 23.643 24.5868 23.5555 24.3581L23.3687 24.4296C23.4462 24.632 23.4856 24.8616 23.4852 25.1197L23.6852 25.12ZM23.5558 24.3589C23.4692 24.1261 23.3354 23.9381 23.1532 23.7991L23.0319 23.9582C23.1808 24.0717 23.2934 24.2271 23.3684 24.4287L23.5558 24.3589ZM23.1541 23.7998C22.9695 23.6557 22.7404 23.5867 22.4741 23.5862L22.4738 23.7862C22.7046 23.7866 22.888 23.8458 23.031 23.9575L23.1541 23.7998ZM22.4741 23.5862C22.2179 23.5858 21.9953 23.6507 21.8125 23.7864L21.9317 23.947C22.0741 23.8413 22.2527 23.7859 22.4738 23.7862L22.4741 23.5862ZM21.813 23.786C21.6328 23.9179 21.4991 24.1017 21.4101 24.3322L21.5966 24.4043C21.674 24.2042 21.7861 24.0536 21.9311 23.9474L21.813 23.786ZM21.4102 24.3319C21.3215 24.5595 21.2783 24.8216 21.2778 25.1161L21.4778 25.1164C21.4783 24.8408 21.5187 24.6042 21.5965 24.4045L21.4102 24.3319Z" fill="#3E3636" fill-opacity="0.66" mask="url(#path-2-outside-1_60_17)"/>
<defs>
<linearGradient id="paint0_linear_60_17" x1="16.0436" y1="4.0165" x2="16.0024" y2="28.9835" gradientUnits="userSpaceOnUse">
<stop offset="0.655" stop-color="#D8AFE4"/>
<stop offset="1" stop-color="white" stop-opacity="0"/>
</linearGradient>
</defs>
</svg>
